<svg width="710" height="417" xmlns="http://www.w3.org/2000/svg"><title>Russell-Hoy</title><desc>Created with Sketch.</desc><g fill="none"><g><path d="M116.766 68.304c2.718.855 5.07 2.113 7.057 3.775 1.987 1.661 3.536 3.734 4.649 6.218s1.669 5.339 1.669 8.565c0 1.839-.326 3.654-.977 5.444-.652 1.791-1.558 3.452-2.718 4.984s-2.535 2.895-4.125 4.089c-1.589 1.194-3.322 2.113-5.197 2.758.795.355 1.597.863 2.408 1.524.811.661 1.574 1.468 2.289 2.42.715.952 1.367 2.032 1.955 3.242.588 1.21 1.057 2.508 1.407 3.896l4.005 15.97h6.246l.095 9.195h-14.066l-5.388-22.309c-.985-4-2.487-6.944-4.506-8.832-2.019-1.887-4.776-2.831-8.273-2.831h-9.298v25.648h7.248v8.324h-23.46v-8.324h6.866v-56.668h-6.866v-8.372h30.087c3.211 0 6.175.427 8.893 1.282zm-22.768 7.09v23.083h13.875c1.812 0 3.473-.242 4.983-.726 1.51-.484 2.813-1.21 3.91-2.178s1.955-2.17 2.575-3.605c.62-1.436.93-3.105.93-5.009 0-3.646-1.081-6.485-3.242-8.517-2.162-2.032-5.595-3.049-10.299-3.049h-12.731zm81.012 14.857h15.926v41.811h5.483v8.324h-14.4v-4.646c-2.225 1.742-4.649 3.097-7.272 4.065-2.623.968-5.428 1.452-8.416 1.452-2.479 0-4.728-.363-6.747-1.089s-3.735-1.855-5.15-3.387c-1.415-1.532-2.503-3.476-3.266-5.831-.763-2.355-1.144-5.162-1.144-8.42v-23.954h-6.675v-8.324h15.926v31.213c0 3.839.874 6.743 2.623 8.711 1.748 1.968 4.26 2.952 7.534 2.952 1.939 0 3.981-.355 6.127-1.065s4.172-1.694 6.079-2.952v-30.536h-6.628v-8.324zm62.201 9.993c-.62-.952-1.423-1.726-2.408-2.323-.985-.597-2.082-1.032-3.29-1.307-1.208-.274-2.384-.411-3.528-.411-1.272 0-2.44.145-3.505.436-1.065.29-1.979.71-2.742 1.258-.763.548-1.359 1.218-1.788 2.008-.429.79-.644 1.67-.644 2.637 0 1.678.501 3.008 1.502 3.992s2.678 1.895 5.03 2.734l9.489 3.387c4.069 1.387 7.041 3.275 8.917 5.662 1.876 2.387 2.813 5.243 2.813 8.565 0 2.226-.437 4.267-1.311 6.122-.874 1.855-2.114 3.436-3.719 4.742-1.605 1.307-3.536 2.323-5.793 3.049s-4.768 1.089-7.534 1.089c-3.846 0-6.977-.629-9.393-1.887-2.416-1.258-4.275-2.92-5.579-4.984h-4.959v-8.324h9.87c0 1.387.294 2.573.882 3.557.588.984 1.367 1.782 2.336 2.395.97.613 2.066 1.065 3.29 1.355 1.224.29 2.472.436 3.743.436 1.24 0 2.432-.153 3.576-.46 1.144-.306 2.154-.758 3.028-1.355.874-.597 1.566-1.315 2.074-2.153.509-.839.763-1.791.763-2.855 0-1.613-.517-2.984-1.55-4.113-1.033-1.129-2.789-2.145-5.269-3.049l-9.441-3.581c-3.846-1.387-6.699-3.154-8.559-5.299-1.86-2.145-2.789-4.831-2.789-8.057 0-2.129.389-4.097 1.168-5.904.779-1.807 1.907-3.363 3.385-4.67 1.478-1.307 3.282-2.331 5.412-3.073s4.562-1.113 7.295-1.113c3.528 0 6.485.5 8.869 1.5 2.384 1 4.53 2.71 6.437 5.13h4.625v8.324h-9.775c0-1.355-.31-2.508-.93-3.46zm47.348 0c-.62-.952-1.423-1.726-2.408-2.323-.985-.597-2.082-1.032-3.29-1.307-1.208-.274-2.384-.411-3.528-.411-1.272 0-2.44.145-3.505.436-1.065.29-1.979.71-2.742 1.258-.763.548-1.359 1.218-1.788 2.008-.429.79-.644 1.67-.644 2.637 0 1.678.501 3.008 1.502 3.992s2.678 1.895 5.03 2.734l9.489 3.387c4.069 1.387 7.041 3.275 8.917 5.662 1.876 2.387 2.813 5.243 2.813 8.565 0 2.226-.437 4.267-1.311 6.122-.874 1.855-2.114 3.436-3.719 4.742-1.605 1.307-3.536 2.323-5.793 3.049s-4.768 1.089-7.534 1.089c-3.846 0-6.977-.629-9.393-1.887-2.416-1.258-4.275-2.92-5.579-4.984h-4.959v-8.324h9.87c0 1.387.294 2.573.882 3.557.588.984 1.367 1.782 2.336 2.395.97.613 2.066 1.065 3.29 1.355 1.224.29 2.472.436 3.743.436 1.24 0 2.432-.153 3.576-.46 1.144-.306 2.154-.758 3.028-1.355.874-.597 1.566-1.315 2.074-2.153.509-.839.763-1.791.763-2.855 0-1.613-.517-2.984-1.55-4.113-1.033-1.129-2.789-2.145-5.269-3.049l-9.441-3.581c-3.846-1.387-6.699-3.154-8.559-5.299-1.86-2.145-2.789-4.831-2.789-8.057 0-2.129.389-4.097 1.168-5.904.779-1.807 1.907-3.363 3.385-4.67 1.478-1.307 3.282-2.331 5.412-3.073s4.562-1.113 7.295-1.113c3.528 0 6.485.5 8.869 1.5 2.384 1 4.53 2.71 6.437 5.13h4.625v8.324h-9.775c0-1.355-.31-2.508-.93-3.46zm28.156 16.236c0 1.42.103 2.718.31 3.896.207 1.178.501 2.299.882 3.363 1.176 3.226 3.06 5.654 5.65 7.283 2.591 1.629 5.523 2.444 8.797 2.444 2.575 0 5.078-.363 7.51-1.089 2.432-.726 4.983-1.863 7.653-3.412l3.576 6.146c-3.242 2.258-6.501 3.936-9.775 5.033-3.274 1.097-6.675 1.645-10.204 1.645-3.338 0-6.429-.565-9.274-1.694-2.845-1.129-5.293-2.807-7.343-5.033-2.05-2.226-3.656-5.001-4.816-8.324-1.16-3.323-1.74-7.194-1.74-11.614 0-3.581.493-6.96 1.478-10.138s2.456-5.952 4.411-8.324c1.955-2.371 4.379-4.25 7.272-5.638 2.893-1.387 6.262-2.081 10.109-2.081 3.719 0 6.826.573 9.322 1.718 2.495 1.145 4.53 2.662 6.103 4.549 1.574 1.887 2.766 4.041 3.576 6.46.811 2.42 1.375 4.888 1.693 7.404.159 1.226.262 2.468.31 3.726.048 1.258.072 2.484.072 3.678h-35.571zm13.875-19.986c-2.066 0-3.87.298-5.412.895-1.542.597-2.853 1.452-3.934 2.565s-1.947 2.476-2.599 4.089c-.652 1.613-1.136 3.42-1.454 5.42h25.605c-.127-1.871-.421-3.597-.882-5.178s-1.168-2.952-2.122-4.113c-.954-1.161-2.177-2.065-3.672-2.71-1.494-.645-3.338-.968-5.531-.968zm33.377-31.407h16.021v66.975h7.438v8.324h-23.46v-8.324h7.152v-58.652h-7.152v-8.324zm31.756 0h16.021v66.975h7.438v8.324h-23.46v-8.324h7.152v-58.652h-7.152v-8.324zm106.331 1.936h23.46v8.324h-6.866v56.716h6.866v8.324h-23.46v-8.324h7.248v-26.374h-41.817v26.374h7.248v8.324h-23.46v-8.324h6.866v-56.716h-6.866v-8.324h23.46v8.324h-7.248v22.212h41.817v-22.212h-7.248v-8.324zm34.379 48.296c.032-3.968.66-7.581 1.883-10.84 1.224-3.258 2.932-6.057 5.126-8.396 2.193-2.339 4.8-4.138 7.82-5.396 3.02-1.258 6.342-1.887 9.966-1.887 3.656 0 7.001.629 10.037 1.887 3.036 1.258 5.634 3.041 7.796 5.347 2.162 2.307 3.846 5.089 5.054 8.348 1.208 3.258 1.812 6.872 1.812 10.84 0 3.904-.604 7.493-1.812 10.767-1.208 3.275-2.893 6.089-5.054 8.444-2.162 2.355-4.76 4.186-7.796 5.493-3.036 1.307-6.381 1.96-10.037 1.96-3.719 0-7.089-.645-10.109-1.936-3.02-1.29-5.611-3.105-7.772-5.444-2.162-2.339-3.846-5.138-5.054-8.396-1.208-3.258-1.828-6.856-1.86-10.792zm9.393 0c0 2.871.405 5.468 1.216 7.791.811 2.323 1.923 4.299 3.338 5.928 1.415 1.629 3.052 2.887 4.911 3.775 1.86.887 3.838 1.331 5.936 1.331 2.193 0 4.236-.436 6.127-1.307s3.536-2.121 4.935-3.75c1.399-1.629 2.495-3.605 3.29-5.928.795-2.323 1.192-4.936 1.192-7.84 0-3.033-.397-5.726-1.192-8.082-.795-2.355-1.883-4.323-3.266-5.904-1.383-1.581-3.028-2.774-4.935-3.581-1.907-.807-3.958-1.21-6.151-1.21-2.098 0-4.077.403-5.936 1.21-1.86.807-3.497 2-4.911 3.581-1.415 1.581-2.527 3.549-3.338 5.904-.811 2.355-1.216 5.049-1.216 8.082zm168.172 238.44v-353.5h-709.489v353.5h292.5l62.5 62.5 62.5-62.5h291.989zm-121.777-263.507h18.739v8.324h-5.865l11.587 31.987 12.111-31.987h-5.817v-8.324h18.739v8.324h-5.102l-21.981 56.28h6.771v8.324h-19.931v-8.324h6.008l5.245-13.792-16.498-42.489h-4.005v-8.324zm89.777 232.007h-649.489v13.5l275.523.267 51.492 49.794 51.511-49.748 270.963-.313v-13.5z" fill-opacity=".848" fill="#ECEAEA"/><polygon fill-opacity=".823" fill="#F2F2F2" transform="rotate(-45 355.631 336.044)" points="330.9589 311.557629 380.303919 360.530967 330.9589 360.530967"/></g><path d="M93.208 200.533h6.854v2.45h-2.039v16.582h2.039v2.436h-6.854v-2.436h2.039v-16.582h-2.039v-2.45zm11.937 6.471h-2.535v-7.335l3.214-.227-.68 7.562zm3.172.326h4.673v1.713h.028c.321-.274.658-.531 1.012-.772s.725-.451 1.112-.63c.387-.179.791-.321 1.211-.425.42-.104.857-.156 1.31-.156 1.057 0 1.968.196 2.733.588.765.392 1.355 1.003 1.77 1.834.359-.321.736-.63 1.133-.927.396-.297.809-.555 1.239-.772.43-.217.88-.392 1.352-.524.472-.132.963-.198 1.473-.198.793 0 1.506.109 2.138.326.632.217 1.171.548 1.614.991.444.444.781 1.012 1.012 1.706.231.694.347 1.513.347 2.457v7.023h2.039v2.436h-6.854v-2.436h2.067v-6.698c0-1.123-.283-1.975-.85-2.556-.566-.581-1.383-.871-2.45-.871-.632 0-1.279.151-1.94.453-.661.302-1.227.684-1.699 1.147v8.524h2.025v2.436h-6.839v-2.436h2.067v-6.698c0-1.123-.286-1.975-.857-2.556s-1.39-.871-2.457-.871c-.614 0-1.232.146-1.855.439-.623.293-1.213.656-1.77 1.09v8.595h2.067v2.436h-6.854v-2.436h2.039v-9.799h-2.039v-2.436zm43.996 13.311c-.557.519-1.173.944-1.848 1.274-.675.33-1.442.496-2.301.496-.717 0-1.376-.113-1.975-.34-.599-.227-1.116-.536-1.551-.927-.434-.392-.772-.847-1.012-1.366-.241-.519-.361-1.071-.361-1.657 0-.623.092-1.175.276-1.657.184-.481.43-.899.736-1.253.307-.354.666-.651 1.076-.892.411-.241.84-.434 1.289-.581.448-.146.906-.25 1.374-.312.467-.061.913-.092 1.338-.092.68 0 1.251.021 1.713.064.463.042.883.101 1.26.177l.014-1.204c0-.519-.076-.97-.227-1.352-.151-.382-.363-.699-.637-.949s-.602-.437-.984-.559c-.382-.123-.809-.184-1.281-.184-.444 0-.868.031-1.274.092s-.786.142-1.14.241c-.354.099-.68.212-.977.34-.297.127-.55.262-.758.404l-.864-1.827c.349-.227.732-.437 1.147-.63.415-.194.852-.359 1.31-.496.458-.137.925-.245 1.402-.326.477-.08.946-.12 1.409-.12.85 0 1.614.101 2.294.304.68.203 1.256.517 1.728.942.472.425.835.965 1.09 1.621.255.656.382 1.442.382 2.358l-.014 7.335h1.628v2.436h-4.262v-1.359zm-3.568-.439c.349 0 .699-.042 1.048-.127.349-.085.68-.201.991-.347.312-.146.599-.316.864-.51.264-.194.486-.394.666-.602l.014-3.313h-3.059c-.51 0-.975.057-1.395.17-.42.113-.784.278-1.09.496-.307.217-.545.486-.715.807-.17.321-.255.689-.255 1.104 0 .387.071.725.212 1.012.142.288.342.529.602.722.26.194.569.34.927.439.359.099.755.149 1.189.149zm20.461-.637h2.067v-6.698c0-1.123-.286-1.975-.857-2.556s-1.39-.871-2.457-.871c-.614 0-1.232.146-1.855.439-.623.293-1.213.656-1.77 1.09v8.595h2.067v2.436h-6.854v-2.436h2.039v-9.799h-2.039v-2.436h4.673v1.728h.028c.312-.274.644-.533.998-.779.354-.245.725-.458 1.112-.637.387-.179.791-.321 1.211-.425.42-.104.861-.156 1.324-.156.784 0 1.492.109 2.124.326.632.217 1.171.548 1.614.991.444.444.786 1.012 1.027 1.706.241.694.361 1.513.361 2.457v7.023h2.039v2.436h-6.854v-2.436zm18.521-4.56c0 .415.031.795.092 1.14.061.345.149.673.262.984.349.944.909 1.654 1.678 2.131.769.477 1.64.715 2.613.715.765 0 1.508-.106 2.23-.319.722-.212 1.48-.545 2.273-.998l1.062 1.798c-.963.661-1.93 1.152-2.903 1.473-.972.321-1.982.481-3.03.481-.991 0-1.909-.165-2.754-.496-.845-.33-1.572-.821-2.181-1.473-.609-.651-1.086-1.463-1.43-2.436-.345-.972-.517-2.105-.517-3.398 0-1.048.146-2.037.439-2.967.293-.93.729-1.742 1.31-2.436.581-.694 1.3-1.244 2.159-1.65.859-.406 1.86-.609 3.002-.609 1.104 0 2.027.168 2.768.503.741.335 1.345.779 1.813 1.331.467.552.821 1.182 1.062 1.89.241.708.408 1.43.503 2.167.047.359.078.722.092 1.09.014.368.021.727.021 1.076h-10.563zm4.121-5.848c-.614 0-1.149.087-1.607.262-.458.175-.847.425-1.168.75-.321.326-.578.725-.772 1.197-.194.472-.337 1.001-.432 1.586h7.604c-.038-.548-.125-1.053-.262-1.515-.137-.463-.347-.864-.63-1.204-.283-.34-.647-.604-1.09-.793-.444-.189-.991-.283-1.643-.283zm19.683 10.408h2.067v-6.698c0-1.123-.286-1.975-.857-2.556s-1.39-.871-2.457-.871c-.614 0-1.232.146-1.855.439-.623.293-1.213.656-1.77 1.09v8.595h2.067v2.436h-6.854v-2.436h2.039v-9.799h-2.039v-2.436h4.673v1.728h.028c.312-.274.644-.533.998-.779.354-.245.725-.458 1.112-.637.387-.179.791-.321 1.211-.425.42-.104.861-.156 1.324-.156.784 0 1.492.109 2.124.326.632.217 1.171.548 1.614.991.444.444.786 1.012 1.027 1.706.241.694.361 1.513.361 2.457v7.023h2.039v2.436h-6.854v-2.436zm13.934-12.234h3.441v2.138h-3.469l-.042 8.468c0 .576.066 1.043.198 1.402s.345.607.637.743c.293.137.623.205.991.205.396 0 .746-.035 1.048-.106.302-.071.632-.191.991-.361l.609 1.77c-.453.236-.93.422-1.43.559-.5.137-1.09.205-1.77.205-.642 0-1.201-.078-1.678-.234-.477-.156-.878-.418-1.204-.786-.326-.368-.569-.861-.729-1.48-.16-.618-.241-1.39-.241-2.315l.042-8.071h-2.336v-2.138h2.365v-3.512l2.577-1.218v4.729zm17.091 3.101h-2.69v-.906c-.312 0-.63.059-.956.177-.326.118-.63.297-.913.538-.283.241-.531.548-.743.92-.212.373-.366.814-.46 1.324v7.08h2.492v2.436h-7.278v-2.436h2.025l.014-9.799h-2.039v-2.436h4.687v2.025c.17-.302.361-.583.573-.843.212-.26.448-.486.708-.68.26-.194.548-.345.864-.453.316-.109.658-.163 1.027-.163h1.388c.434 0 .868.009 1.303.028v3.186zm5.537 4.574c0 .415.031.795.092 1.14.061.345.149.673.262.984.349.944.909 1.654 1.678 2.131.769.477 1.64.715 2.613.715.765 0 1.508-.106 2.23-.319.722-.212 1.48-.545 2.273-.998l1.062 1.798c-.963.661-1.93 1.152-2.903 1.473-.972.321-1.982.481-3.03.481-.991 0-1.909-.165-2.754-.496-.845-.33-1.572-.821-2.181-1.473-.609-.651-1.086-1.463-1.43-2.436-.345-.972-.517-2.105-.517-3.398 0-1.048.146-2.037.439-2.967.293-.93.729-1.742 1.31-2.436.581-.694 1.3-1.244 2.159-1.65.859-.406 1.86-.609 3.002-.609 1.104 0 2.027.168 2.768.503.741.335 1.345.779 1.813 1.331.467.552.821 1.182 1.062 1.89.241.708.408 1.43.503 2.167.047.359.078.722.092 1.09.014.368.021.727.021 1.076h-10.563zm4.121-5.848c-.614 0-1.149.087-1.607.262-.458.175-.847.425-1.168.75-.321.326-.578.725-.772 1.197-.194.472-.337 1.001-.432 1.586h7.604c-.038-.548-.125-1.053-.262-1.515-.137-.463-.347-.864-.63-1.204-.283-.34-.647-.604-1.09-.793-.444-.189-.991-.283-1.643-.283zm9.445-1.827h4.673v1.218c.623-.481 1.303-.864 2.039-1.147.736-.283 1.496-.425 2.28-.425.963 0 1.846.179 2.648.538.802.359 1.494.864 2.074 1.515.581.651 1.031 1.433 1.352 2.344.321.911.481 1.919.481 3.023 0 1.18-.179 2.256-.538 3.229-.359.972-.857 1.805-1.494 2.499-.637.694-1.395 1.234-2.273 1.621-.878.387-1.841.581-2.889.581-.746 0-1.409-.078-1.99-.234-.581-.156-1.135-.356-1.664-.602v4.744h2.294v2.436h-6.967v-2.436h2.011v-16.468h-2.039v-2.436zm8.298 1.968c-.68 0-1.333.137-1.961.411-.628.274-1.173.651-1.635 1.133v7.944c.312.321.758.609 1.338.864.581.255 1.305.382 2.174.382.604 0 1.185-.118 1.742-.354.557-.236 1.048-.588 1.473-1.055.425-.467.765-1.045 1.02-1.735.255-.689.382-1.487.382-2.393 0-.831-.12-1.567-.361-2.209-.241-.642-.566-1.185-.977-1.628-.411-.444-.89-.781-1.437-1.012-.548-.231-1.133-.347-1.756-.347zm20.518 1.133h-2.69v-.906c-.312 0-.63.059-.956.177-.326.118-.63.297-.913.538-.283.241-.531.548-.743.92-.212.373-.366.814-.46 1.324v7.08h2.492v2.436h-7.278v-2.436h2.025l.014-9.799h-2.039v-2.436h4.687v2.025c.17-.302.361-.583.573-.843.212-.26.448-.486.708-.68.26-.194.548-.345.864-.453.316-.109.658-.163 1.027-.163h1.388c.434 0 .868.009 1.303.028v3.186zm5.537 4.574c0 .415.031.795.092 1.14.061.345.149.673.262.984.349.944.909 1.654 1.678 2.131.769.477 1.64.715 2.613.715.765 0 1.508-.106 2.23-.319.722-.212 1.48-.545 2.273-.998l1.062 1.798c-.963.661-1.93 1.152-2.903 1.473-.972.321-1.982.481-3.03.481-.991 0-1.909-.165-2.754-.496-.845-.33-1.572-.821-2.181-1.473-.609-.651-1.086-1.463-1.43-2.436-.345-.972-.517-2.105-.517-3.398 0-1.048.146-2.037.439-2.967.293-.93.729-1.742 1.31-2.436.581-.694 1.3-1.244 2.159-1.65.859-.406 1.86-.609 3.002-.609 1.104 0 2.027.168 2.768.503.741.335 1.345.779 1.813 1.331.467.552.821 1.182 1.062 1.89.241.708.408 1.43.503 2.167.047.359.078.722.092 1.09.014.368.021.727.021 1.076h-10.563zm4.121-5.848c-.614 0-1.149.087-1.607.262-.458.175-.847.425-1.168.75-.321.326-.578.725-.772 1.197-.194.472-.337 1.001-.432 1.586h7.604c-.038-.548-.125-1.053-.262-1.515-.137-.463-.347-.864-.63-1.204-.283-.34-.647-.604-1.09-.793-.444-.189-.991-.283-1.643-.283zm19.683 10.408h2.067v-6.698c0-1.123-.286-1.975-.857-2.556s-1.39-.871-2.457-.871c-.614 0-1.232.146-1.855.439-.623.293-1.213.656-1.77 1.09v8.595h2.067v2.436h-6.854v-2.436h2.039v-9.799h-2.039v-2.436h4.673v1.728h.028c.312-.274.644-.533.998-.779.354-.245.725-.458 1.112-.637.387-.179.791-.321 1.211-.425.42-.104.861-.156 1.324-.156.784 0 1.492.109 2.124.326.632.217 1.171.548 1.614.991.444.444.786 1.012 1.027 1.706.241.694.361 1.513.361 2.457v7.023h2.039v2.436h-6.854v-2.436zm12.178-4.56c0 .415.031.795.092 1.14.061.345.149.673.262.984.349.944.909 1.654 1.678 2.131.769.477 1.64.715 2.613.715.765 0 1.508-.106 2.23-.319.722-.212 1.48-.545 2.273-.998l1.062 1.798c-.963.661-1.93 1.152-2.903 1.473-.972.321-1.982.481-3.03.481-.991 0-1.909-.165-2.754-.496-.845-.33-1.572-.821-2.181-1.473-.609-.651-1.086-1.463-1.43-2.436-.345-.972-.517-2.105-.517-3.398 0-1.048.146-2.037.439-2.967.293-.93.729-1.742 1.31-2.436.581-.694 1.3-1.244 2.159-1.65.859-.406 1.86-.609 3.002-.609 1.104 0 2.027.168 2.768.503.741.335 1.345.779 1.813 1.331.467.552.821 1.182 1.062 1.89.241.708.408 1.43.503 2.167.047.359.078.722.092 1.09.014.368.021.727.021 1.076h-10.563zm4.121-5.848c-.614 0-1.149.087-1.607.262-.458.175-.847.425-1.168.75-.321.326-.578.725-.772 1.197-.194.472-.337 1.001-.432 1.586h7.604c-.038-.548-.125-1.053-.262-1.515-.137-.463-.347-.864-.63-1.204-.283-.34-.647-.604-1.09-.793-.444-.189-.991-.283-1.643-.283zm18.861-1.827h4.729v12.234h1.628v2.436h-4.276v-1.359c-.661.51-1.381.906-2.159 1.189-.779.283-1.612.425-2.499.425-.736 0-1.404-.106-2.004-.319-.599-.212-1.109-.543-1.529-.991-.42-.448-.743-1.017-.97-1.706-.227-.689-.34-1.51-.34-2.464v-7.009h-1.982v-2.436h4.729v9.133c0 1.123.26 1.973.779 2.549.519.576 1.265.864 2.237.864.576 0 1.182-.104 1.82-.312.637-.208 1.239-.496 1.805-.864v-8.935h-1.968v-2.436zm20.83 3.101h-2.69v-.906c-.312 0-.63.059-.956.177-.326.118-.63.297-.913.538-.283.241-.531.548-.743.92-.212.373-.366.814-.46 1.324v7.08h2.492v2.436h-7.278v-2.436h2.025l.014-9.799h-2.039v-2.436h4.687v2.025c.17-.302.361-.583.573-.843.212-.26.448-.486.708-.68.26-.194.548-.345.864-.453.316-.109.658-.163 1.027-.163h1.388c.434 0 .868.009 1.303.028v3.186zm2.931-3.101h4.786v12.234h2.209v2.436h-6.967v-2.436h2.096v-9.799h-2.124v-2.436zm1.628-5.197c0-.245.05-.479.149-.701.099-.222.231-.415.396-.581.165-.165.361-.297.588-.396.227-.099.467-.149.722-.149.245 0 .479.05.701.149.222.099.415.231.581.396.165.165.297.359.396.581.099.222.149.455.149.701 0 .255-.05.496-.149.722-.099.227-.231.427-.396.602s-.359.312-.581.411c-.222.099-.455.149-.701.149-.255 0-.496-.05-.722-.149-.227-.099-.422-.236-.588-.411-.165-.175-.297-.375-.396-.602-.099-.227-.149-.467-.149-.722zm16.412 18.507c-.557.519-1.173.944-1.848 1.274-.675.33-1.442.496-2.301.496-.717 0-1.376-.113-1.975-.34-.599-.227-1.116-.536-1.551-.927-.434-.392-.772-.847-1.012-1.366-.241-.519-.361-1.071-.361-1.657 0-.623.092-1.175.276-1.657.184-.481.43-.899.736-1.253.307-.354.666-.651 1.076-.892.411-.241.84-.434 1.289-.581.448-.146.906-.25 1.374-.312.467-.061.913-.092 1.338-.092.68 0 1.251.021 1.713.064.463.042.883.101 1.26.177l.014-1.204c0-.519-.076-.97-.227-1.352-.151-.382-.363-.699-.637-.949s-.602-.437-.984-.559c-.382-.123-.809-.184-1.281-.184-.444 0-.868.031-1.274.092s-.786.142-1.14.241c-.354.099-.68.212-.977.34-.297.127-.55.262-.758.404l-.864-1.827c.349-.227.732-.437 1.147-.63.415-.194.852-.359 1.31-.496.458-.137.925-.245 1.402-.326.477-.08.946-.12 1.409-.12.85 0 1.614.101 2.294.304.68.203 1.256.517 1.728.942.472.425.835.965 1.09 1.621.255.656.382 1.442.382 2.358l-.014 7.335h1.628v2.436h-4.262v-1.359zm-3.568-.439c.349 0 .699-.042 1.048-.127.349-.085.68-.201.991-.347.312-.146.599-.316.864-.51.264-.194.486-.394.666-.602l.014-3.313h-3.059c-.51 0-.975.057-1.395.17-.42.113-.784.278-1.09.496-.307.217-.545.486-.715.807-.17.321-.255.689-.255 1.104 0 .387.071.725.212 1.012.142.288.342.529.602.722.26.194.569.34.927.439.359.099.755.149 1.189.149zm10.691-20.235h4.758v19.598h2.209v2.436h-6.967v-2.436h2.124v-17.162h-2.124v-2.436zm14.755 7.363h4.645v2.436h-.68l2.563 9.36 3.512-11.795h2.209l3.356 11.767 2.676-9.332h-.85v-2.436h4.645v2.436h-1.26l-4.021 12.461h-2.436l-3.328-11.71-3.313 11.71h-2.464l-3.993-12.461h-1.26v-2.436zm26.848 7.675c0 .415.031.795.092 1.14.061.345.149.673.262.984.349.944.909 1.654 1.678 2.131.769.477 1.64.715 2.613.715.765 0 1.508-.106 2.23-.319.722-.212 1.48-.545 2.273-.998l1.062 1.798c-.963.661-1.93 1.152-2.903 1.473-.972.321-1.982.481-3.03.481-.991 0-1.909-.165-2.754-.496-.845-.33-1.572-.821-2.181-1.473-.609-.651-1.086-1.463-1.43-2.436-.345-.972-.517-2.105-.517-3.398 0-1.048.146-2.037.439-2.967.293-.93.729-1.742 1.31-2.436.581-.694 1.3-1.244 2.159-1.65.859-.406 1.86-.609 3.002-.609 1.104 0 2.027.168 2.768.503.741.335 1.345.779 1.813 1.331.467.552.821 1.182 1.062 1.89.241.708.408 1.43.503 2.167.047.359.078.722.092 1.09.014.368.021.727.021 1.076h-10.563zm4.121-5.848c-.614 0-1.149.087-1.607.262-.458.175-.847.425-1.168.75-.321.326-.578.725-.772 1.197-.194.472-.337 1.001-.432 1.586h7.604c-.038-.548-.125-1.053-.262-1.515-.137-.463-.347-.864-.63-1.204-.283-.34-.647-.604-1.09-.793-.444-.189-.991-.283-1.643-.283zm9.417-9.19h4.758v8.581c.623-.481 1.303-.864 2.039-1.147.736-.283 1.496-.425 2.28-.425.963 0 1.846.179 2.648.538.802.359 1.494.864 2.074 1.515.581.651 1.031 1.433 1.352 2.344.321.911.481 1.919.481 3.023 0 1.18-.179 2.249-.538 3.207-.359.958-.857 1.782-1.494 2.471-.637.689-1.395 1.22-2.273 1.593-.878.373-1.841.559-2.889.559-.727 0-1.409-.106-2.046-.319-.637-.212-1.182-.489-1.635-.828v.92h-2.634v-19.598h-2.124v-2.436zm8.383 9.332c-.689 0-1.35.142-1.982.425-.632.283-1.18.666-1.643 1.147v7.887c.302.312.746.588 1.331.828.585.241 1.322.361 2.209.361.604 0 1.185-.113 1.742-.34.557-.227 1.048-.569 1.473-1.027.425-.458.765-1.027 1.02-1.706.255-.68.382-1.473.382-2.379 0-.831-.12-1.567-.361-2.209-.241-.642-.566-1.185-.977-1.628-.411-.444-.89-.781-1.437-1.012-.548-.231-1.133-.347-1.756-.347zm24.964-9.332h4.63v19.598h2.152v2.436h-4.786v-1.204c-.472.481-1.02.857-1.643 1.126-.623.269-1.331.404-2.124.404-.991 0-1.914-.172-2.768-.517-.854-.345-1.595-.85-2.223-1.515-.628-.666-1.119-1.482-1.473-2.45-.354-.968-.531-2.074-.531-3.321 0-1.133.17-2.164.51-3.094.34-.93.821-1.723 1.444-2.379.623-.656 1.374-1.166 2.251-1.529.878-.363 1.855-.545 2.931-.545.708 0 1.355.078 1.94.234.585.156 1.147.427 1.685.814v-5.622h-1.997v-2.436zm-1.43 20.065c.784 0 1.44-.116 1.968-.347.529-.231 1.015-.578 1.458-1.041v-8.213c-.472-.396-1.015-.684-1.628-.864-.614-.179-1.241-.269-1.883-.269-.623 0-1.208.116-1.756.347-.548.231-1.027.569-1.437 1.012-.411.444-.734.986-.97 1.628-.236.642-.354 1.378-.354 2.209 0 .906.113 1.704.34 2.393.227.689.543 1.267.949 1.735.406.467.892.819 1.458 1.055s1.185.354 1.855.354zm13.226-5.027c0 .415.031.795.092 1.14.061.345.149.673.262.984.349.944.909 1.654 1.678 2.131.769.477 1.64.715 2.613.715.765 0 1.508-.106 2.23-.319.722-.212 1.48-.545 2.273-.998l1.062 1.798c-.963.661-1.93 1.152-2.903 1.473-.972.321-1.982.481-3.03.481-.991 0-1.909-.165-2.754-.496-.845-.33-1.572-.821-2.181-1.473-.609-.651-1.086-1.463-1.43-2.436-.345-.972-.517-2.105-.517-3.398 0-1.048.146-2.037.439-2.967.293-.93.729-1.742 1.31-2.436.581-.694 1.3-1.244 2.159-1.65.859-.406 1.86-.609 3.002-.609 1.104 0 2.027.168 2.768.503.741.335 1.345.779 1.813 1.331.467.552.821 1.182 1.062 1.89.241.708.408 1.43.503 2.167.047.359.078.722.092 1.09.014.368.021.727.021 1.076h-10.563zm4.121-5.848c-.614 0-1.149.087-1.607.262-.458.175-.847.425-1.168.75-.321.326-.578.725-.772 1.197-.194.472-.337 1.001-.432 1.586h7.604c-.038-.548-.125-1.053-.262-1.515-.137-.463-.347-.864-.63-1.204-.283-.34-.647-.604-1.09-.793-.444-.189-.991-.283-1.643-.283zm8.893-1.827h5.069v2.436h-1.374l3.625 10.11 3.54-10.11h-.892v-2.436h4.645v2.436h-1.26l-4.8 12.461h-2.605l-4.786-12.461h-1.161v-2.436zm19.201 7.675c0 .415.031.795.092 1.14.061.345.149.673.262.984.349.944.909 1.654 1.678 2.131.769.477 1.64.715 2.613.715.765 0 1.508-.106 2.23-.319.722-.212 1.48-.545 2.273-.998l1.062 1.798c-.963.661-1.93 1.152-2.903 1.473-.972.321-1.982.481-3.03.481-.991 0-1.909-.165-2.754-.496-.845-.33-1.572-.821-2.181-1.473-.609-.651-1.086-1.463-1.43-2.436-.345-.972-.517-2.105-.517-3.398 0-1.048.146-2.037.439-2.967.293-.93.729-1.742 1.31-2.436.581-.694 1.3-1.244 2.159-1.65.859-.406 1.86-.609 3.002-.609 1.104 0 2.027.168 2.768.503.741.335 1.345.779 1.813 1.331.467.552.821 1.182 1.062 1.89.241.708.408 1.43.503 2.167.047.359.078.722.092 1.09.014.368.021.727.021 1.076h-10.563zm4.121-5.848c-.614 0-1.149.087-1.607.262-.458.175-.847.425-1.168.75-.321.326-.578.725-.772 1.197-.194.472-.337 1.001-.432 1.586h7.604c-.038-.548-.125-1.053-.262-1.515-.137-.463-.347-.864-.63-1.204-.283-.34-.647-.604-1.09-.793-.444-.189-.991-.283-1.643-.283zm9.912-9.19h4.758v19.598h2.209v2.436h-6.967v-2.436h2.124v-17.162h-2.124v-2.436zm9.346 14.698c.009-1.161.196-2.218.559-3.172.363-.953.871-1.772 1.522-2.457.651-.684 1.425-1.211 2.322-1.579.897-.368 1.883-.552 2.959-.552 1.086 0 2.079.184 2.981.552.902.368 1.673.89 2.315 1.565.642.675 1.142 1.489 1.501 2.443.359.953.538 2.011.538 3.172 0 1.142-.179 2.192-.538 3.151-.359.958-.859 1.782-1.501 2.471-.642.689-1.414 1.225-2.315 1.607-.902.382-1.895.573-2.981.573-1.104 0-2.105-.189-3.002-.566-.897-.378-1.666-.909-2.308-1.593-.642-.684-1.142-1.503-1.501-2.457-.359-.953-.543-2.006-.552-3.158zm2.79 0c0 .84.12 1.6.361 2.28.241.68.571 1.258.991 1.735.42.477.906.845 1.458 1.104.552.26 1.14.389 1.763.389.651 0 1.258-.127 1.82-.382s1.05-.621 1.466-1.097c.415-.477.741-1.055.977-1.735.236-.68.354-1.444.354-2.294 0-.887-.118-1.676-.354-2.365-.236-.689-.559-1.265-.97-1.728-.411-.463-.899-.812-1.466-1.048-.566-.236-1.175-.354-1.827-.354-.623 0-1.211.118-1.763.354-.552.236-1.038.585-1.458 1.048-.42.463-.75 1.038-.991 1.728-.241.689-.361 1.477-.361 2.365zm14.174-7.335h4.673v1.218c.623-.481 1.303-.864 2.039-1.147.736-.283 1.496-.425 2.28-.425.963 0 1.846.179 2.648.538.802.359 1.494.864 2.074 1.515.581.651 1.031 1.433 1.352 2.344.321.911.481 1.919.481 3.023 0 1.18-.179 2.256-.538 3.229-.359.972-.857 1.805-1.494 2.499-.637.694-1.395 1.234-2.273 1.621-.878.387-1.841.581-2.889.581-.746 0-1.409-.078-1.99-.234-.581-.156-1.135-.356-1.664-.602v4.744h2.294v2.436h-6.967v-2.436h2.011v-16.468h-2.039v-2.436zm8.298 1.968c-.68 0-1.333.137-1.961.411-.628.274-1.173.651-1.635 1.133v7.944c.312.321.758.609 1.338.864.581.255 1.305.382 2.174.382.604 0 1.185-.118 1.742-.354.557-.236 1.048-.588 1.473-1.055.425-.467.765-1.045 1.02-1.735.255-.689.382-1.487.382-2.393 0-.831-.12-1.567-.361-2.209-.241-.642-.566-1.185-.977-1.628-.411-.444-.89-.781-1.437-1.012-.548-.231-1.133-.347-1.756-.347zm12.461 5.707c0 .415.031.795.092 1.14.061.345.149.673.262.984.349.944.909 1.654 1.678 2.131.769.477 1.64.715 2.613.715.765 0 1.508-.106 2.23-.319.722-.212 1.48-.545 2.273-.998l1.062 1.798c-.963.661-1.93 1.152-2.903 1.473-.972.321-1.982.481-3.03.481-.991 0-1.909-.165-2.754-.496-.845-.33-1.572-.821-2.181-1.473-.609-.651-1.086-1.463-1.43-2.436-.345-.972-.517-2.105-.517-3.398 0-1.048.146-2.037.439-2.967.293-.93.729-1.742 1.31-2.436.581-.694 1.3-1.244 2.159-1.65.859-.406 1.86-.609 3.002-.609 1.104 0 2.027.168 2.768.503.741.335 1.345.779 1.813 1.331.467.552.821 1.182 1.062 1.89.241.708.408 1.43.503 2.167.047.359.078.722.092 1.09.014.368.021.727.021 1.076h-10.563zm4.121-5.848c-.614 0-1.149.087-1.607.262-.458.175-.847.425-1.168.75-.321.326-.578.725-.772 1.197-.194.472-.337 1.001-.432 1.586h7.604c-.038-.548-.125-1.053-.262-1.515-.137-.463-.347-.864-.63-1.204-.283-.34-.647-.604-1.09-.793-.444-.189-.991-.283-1.643-.283zm20.575 1.274h-2.69v-.906c-.312 0-.63.059-.956.177-.326.118-.63.297-.913.538-.283.241-.531.548-.743.92-.212.373-.366.814-.46 1.324v7.08h2.492v2.436h-7.278v-2.436h2.025l.014-9.799h-2.039v-2.436h4.687v2.025c.17-.302.361-.583.573-.843.212-.26.448-.486.708-.68.26-.194.548-.345.864-.453.316-.109.658-.163 1.027-.163h1.388c.434 0 .868.009 1.303.028v3.186zm-563.263 37.899h4.645v2.436h-.68l2.563 9.36 3.512-11.795h2.209l3.356 11.767 2.676-9.332h-.85v-2.436h4.645v2.436h-1.26l-4.021 12.461h-2.436l-3.328-11.71-3.313 11.71h-2.464l-3.993-12.461h-1.26v-2.436zm24.242 0h4.786v12.234h2.209v2.436h-6.967v-2.436h2.096v-9.799h-2.124v-2.436zm1.628-5.197c0-.245.05-.479.149-.701.099-.222.231-.415.396-.581.165-.165.361-.297.588-.396.227-.099.467-.149.722-.149.245 0 .479.05.701.149.222.099.415.231.581.396.165.165.297.359.396.581.099.222.149.455.149.701 0 .255-.05.496-.149.722-.099.227-.231.427-.396.602s-.359.312-.581.411c-.222.099-.455.149-.701.149-.255 0-.496-.05-.722-.149-.227-.099-.422-.236-.588-.411-.165-.175-.297-.375-.396-.602-.099-.227-.149-.467-.149-.722zm12.036 5.197h3.441v2.138h-3.469l-.042 8.468c0 .576.066 1.043.198 1.402s.345.607.637.743c.293.137.623.205.991.205.396 0 .746-.035 1.048-.106.302-.071.632-.191.991-.361l.609 1.77c-.453.236-.93.422-1.43.559-.5.137-1.09.205-1.77.205-.642 0-1.201-.078-1.678-.234-.477-.156-.878-.418-1.204-.786-.326-.368-.569-.861-.729-1.48-.16-.618-.241-1.39-.241-2.315l.042-8.071h-2.336v-2.138h2.365v-3.512l2.577-1.218v4.729zm6.74-7.363h4.645v8.978h.085c.264-.264.569-.512.913-.743.345-.231.706-.432 1.083-.602.378-.17.769-.302 1.175-.396.406-.094.831-.142 1.274-.142.784 0 1.492.109 2.124.326.632.217 1.171.548 1.614.991.444.444.786 1.012 1.027 1.706.241.694.361 1.513.361 2.457v7.023h2.209v2.436h-6.967v-2.436h2.011v-6.698c0-1.123-.286-1.975-.857-2.556s-1.39-.871-2.457-.871c-.604 0-1.218.144-1.841.432-.623.288-1.208.649-1.756 1.083v8.609h2.124v2.436h-6.967v-2.436h2.209v-17.162h-2.011v-2.436zm33.942 20.674c-.557.519-1.173.944-1.848 1.274-.675.33-1.442.496-2.301.496-.717 0-1.376-.113-1.975-.34-.599-.227-1.116-.536-1.551-.927-.434-.392-.772-.847-1.012-1.366-.241-.519-.361-1.071-.361-1.657 0-.623.092-1.175.276-1.657.184-.481.43-.899.736-1.253.307-.354.666-.651 1.076-.892.411-.241.84-.434 1.289-.581.448-.146.906-.25 1.374-.312.467-.061.913-.092 1.338-.092.68 0 1.251.021 1.713.064.463.042.883.101 1.26.177l.014-1.204c0-.519-.076-.97-.227-1.352-.151-.382-.363-.699-.637-.949s-.602-.437-.984-.559c-.382-.123-.809-.184-1.281-.184-.444 0-.868.031-1.274.092s-.786.142-1.14.241c-.354.099-.68.212-.977.34-.297.127-.55.262-.758.404l-.864-1.827c.349-.227.732-.437 1.147-.63.415-.194.852-.359 1.31-.496.458-.137.925-.245 1.402-.326.477-.08.946-.12 1.409-.12.85 0 1.614.101 2.294.304.68.203 1.256.517 1.728.942.472.425.835.965 1.09 1.621.255.656.382 1.442.382 2.358l-.014 7.335h1.628v2.436h-4.262v-1.359zm-3.568-.439c.349 0 .699-.042 1.048-.127.349-.085.68-.201.991-.347.312-.146.599-.316.864-.51.264-.194.486-.394.666-.602l.014-3.313h-3.059c-.51 0-.975.057-1.395.17-.42.113-.784.278-1.09.496-.307.217-.545.486-.715.807-.17.321-.255.689-.255 1.104 0 .387.071.725.212 1.012.142.288.342.529.602.722.26.194.569.34.927.439.359.099.755.149 1.189.149zm25.8-20.235h4.63v19.598h2.152v2.436h-4.786v-1.204c-.472.481-1.02.857-1.643 1.126-.623.269-1.331.404-2.124.404-.991 0-1.914-.172-2.768-.517-.854-.345-1.595-.85-2.223-1.515-.628-.666-1.119-1.482-1.473-2.45-.354-.968-.531-2.074-.531-3.321 0-1.133.17-2.164.51-3.094.34-.93.821-1.723 1.444-2.379.623-.656 1.374-1.166 2.251-1.529.878-.363 1.855-.545 2.931-.545.708 0 1.355.078 1.94.234.585.156 1.147.427 1.685.814v-5.622h-1.997v-2.436zm-1.43 20.065c.784 0 1.44-.116 1.968-.347.529-.231 1.015-.578 1.458-1.041v-8.213c-.472-.396-1.015-.684-1.628-.864-.614-.179-1.241-.269-1.883-.269-.623 0-1.208.116-1.756.347-.548.231-1.027.569-1.437 1.012-.411.444-.734.986-.97 1.628-.236.642-.354 1.378-.354 2.209 0 .906.113 1.704.34 2.393.227.689.543 1.267.949 1.735.406.467.892.819 1.458 1.055s1.185.354 1.855.354zm13.226-5.027c0 .415.031.795.092 1.14.061.345.149.673.262.984.349.944.909 1.654 1.678 2.131.769.477 1.64.715 2.613.715.765 0 1.508-.106 2.23-.319.722-.212 1.48-.545 2.273-.998l1.062 1.798c-.963.661-1.93 1.152-2.903 1.473-.972.321-1.982.481-3.03.481-.991 0-1.909-.165-2.754-.496-.845-.33-1.572-.821-2.181-1.473-.609-.651-1.086-1.463-1.43-2.436-.345-.972-.517-2.105-.517-3.398 0-1.048.146-2.037.439-2.967.293-.93.729-1.742 1.31-2.436.581-.694 1.3-1.244 2.159-1.65.859-.406 1.86-.609 3.002-.609 1.104 0 2.027.168 2.768.503.741.335 1.345.779 1.813 1.331.467.552.821 1.182 1.062 1.89.241.708.408 1.43.503 2.167.047.359.078.722.092 1.09.014.368.021.727.021 1.076h-10.563zm4.121-5.848c-.614 0-1.149.087-1.607.262-.458.175-.847.425-1.168.75-.321.326-.578.725-.772 1.197-.194.472-.337 1.001-.432 1.586h7.604c-.038-.548-.125-1.053-.262-1.515-.137-.463-.347-.864-.63-1.204-.283-.34-.647-.604-1.09-.793-.444-.189-.991-.283-1.643-.283zm12.518 5.848c0 .415.031.795.092 1.14.061.345.149.673.262.984.349.944.909 1.654 1.678 2.131.769.477 1.64.715 2.613.715.765 0 1.508-.106 2.23-.319.722-.212 1.48-.545 2.273-.998l1.062 1.798c-.963.661-1.93 1.152-2.903 1.473-.972.321-1.982.481-3.03.481-.991 0-1.909-.165-2.754-.496-.845-.33-1.572-.821-2.181-1.473-.609-.651-1.086-1.463-1.43-2.436-.345-.972-.517-2.105-.517-3.398 0-1.048.146-2.037.439-2.967.293-.93.729-1.742 1.31-2.436.581-.694 1.3-1.244 2.159-1.65.859-.406 1.86-.609 3.002-.609 1.104 0 2.027.168 2.768.503.741.335 1.345.779 1.813 1.331.467.552.821 1.182 1.062 1.89.241.708.408 1.43.503 2.167.047.359.078.722.092 1.09.014.368.021.727.021 1.076h-10.563zm4.121-5.848c-.614 0-1.149.087-1.607.262-.458.175-.847.425-1.168.75-.321.326-.578.725-.772 1.197-.194.472-.337 1.001-.432 1.586h7.604c-.038-.548-.125-1.053-.262-1.515-.137-.463-.347-.864-.63-1.204-.283-.34-.647-.604-1.09-.793-.444-.189-.991-.283-1.643-.283zm9.445-1.827h4.673v1.218c.623-.481 1.303-.864 2.039-1.147.736-.283 1.496-.425 2.28-.425.963 0 1.846.179 2.648.538.802.359 1.494.864 2.074 1.515.581.651 1.031 1.433 1.352 2.344.321.911.481 1.919.481 3.023 0 1.18-.179 2.256-.538 3.229-.359.972-.857 1.805-1.494 2.499-.637.694-1.395 1.234-2.273 1.621-.878.387-1.841.581-2.889.581-.746 0-1.409-.078-1.99-.234-.581-.156-1.135-.356-1.664-.602v4.744h2.294v2.436h-6.967v-2.436h2.011v-16.468h-2.039v-2.436zm8.298 1.968c-.68 0-1.333.137-1.961.411-.628.274-1.173.651-1.635 1.133v7.944c.312.321.758.609 1.338.864.581.255 1.305.382 2.174.382.604 0 1.185-.118 1.742-.354.557-.236 1.048-.588 1.473-1.055.425-.467.765-1.045 1.02-1.735.255-.689.382-1.487.382-2.393 0-.831-.12-1.567-.361-2.209-.241-.642-.566-1.185-.977-1.628-.411-.444-.89-.781-1.437-1.012-.548-.231-1.133-.347-1.756-.347zm16.199-1.968h4.786v12.234h2.209v2.436h-6.967v-2.436h2.096v-9.799h-2.124v-2.436zm1.628-5.197c0-.245.05-.479.149-.701.099-.222.231-.415.396-.581.165-.165.361-.297.588-.396.227-.099.467-.149.722-.149.245 0 .479.05.701.149.222.099.415.231.581.396.165.165.297.359.396.581.099.222.149.455.149.701 0 .255-.05.496-.149.722-.099.227-.231.427-.396.602s-.359.312-.581.411c-.222.099-.455.149-.701.149-.255 0-.496-.05-.722-.149-.227-.099-.422-.236-.588-.411-.165-.175-.297-.375-.396-.602-.099-.227-.149-.467-.149-.722zm17.445 17.431h2.067v-6.698c0-1.123-.286-1.975-.857-2.556s-1.39-.871-2.457-.871c-.614 0-1.232.146-1.855.439-.623.293-1.213.656-1.77 1.09v8.595h2.067v2.436h-6.854v-2.436h2.039v-9.799h-2.039v-2.436h4.673v1.728h.028c.312-.274.644-.533.998-.779.354-.245.725-.458 1.112-.637.387-.179.791-.321 1.211-.425.42-.104.861-.156 1.324-.156.784 0 1.492.109 2.124.326.632.217 1.171.548 1.614.991.444.444.786 1.012 1.027 1.706.241.694.361 1.513.361 2.457v7.023h2.039v2.436h-6.854v-2.436zm13.934-12.234h3.441v2.138h-3.469l-.042 8.468c0 .576.066 1.043.198 1.402s.345.607.637.743c.293.137.623.205.991.205.396 0 .746-.035 1.048-.106.302-.071.632-.191.991-.361l.609 1.77c-.453.236-.93.422-1.43.559-.5.137-1.09.205-1.77.205-.642 0-1.201-.078-1.678-.234-.477-.156-.878-.418-1.204-.786-.326-.368-.569-.861-.729-1.48-.16-.618-.241-1.39-.241-2.315l.042-8.071h-2.336v-2.138h2.365v-3.512l2.577-1.218v4.729zm9.034 7.675c0 .415.031.795.092 1.14.061.345.149.673.262.984.349.944.909 1.654 1.678 2.131.769.477 1.64.715 2.613.715.765 0 1.508-.106 2.23-.319.722-.212 1.48-.545 2.273-.998l1.062 1.798c-.963.661-1.93 1.152-2.903 1.473-.972.321-1.982.481-3.03.481-.991 0-1.909-.165-2.754-.496-.845-.33-1.572-.821-2.181-1.473-.609-.651-1.086-1.463-1.43-2.436-.345-.972-.517-2.105-.517-3.398 0-1.048.146-2.037.439-2.967.293-.93.729-1.742 1.31-2.436.581-.694 1.3-1.244 2.159-1.65.859-.406 1.86-.609 3.002-.609 1.104 0 2.027.168 2.768.503.741.335 1.345.779 1.813 1.331.467.552.821 1.182 1.062 1.89.241.708.408 1.43.503 2.167.047.359.078.722.092 1.09.014.368.021.727.021 1.076h-10.563zm4.121-5.848c-.614 0-1.149.087-1.607.262-.458.175-.847.425-1.168.75-.321.326-.578.725-.772 1.197-.194.472-.337 1.001-.432 1.586h7.604c-.038-.548-.125-1.053-.262-1.515-.137-.463-.347-.864-.63-1.204-.283-.34-.647-.604-1.09-.793-.444-.189-.991-.283-1.643-.283zm20.575 1.274h-2.69v-.906c-.312 0-.63.059-.956.177-.326.118-.63.297-.913.538-.283.241-.531.548-.743.92-.212.373-.366.814-.46 1.324v7.08h2.492v2.436h-7.278v-2.436h2.025l.014-9.799h-2.039v-2.436h4.687v2.025c.17-.302.361-.583.573-.843.212-.26.448-.486.708-.68.26-.194.548-.345.864-.453.316-.109.658-.163 1.027-.163h1.388c.434 0 .868.009 1.303.028v3.186zm5.537 4.574c0 .415.031.795.092 1.14.061.345.149.673.262.984.349.944.909 1.654 1.678 2.131.769.477 1.64.715 2.613.715.765 0 1.508-.106 2.23-.319.722-.212 1.48-.545 2.273-.998l1.062 1.798c-.963.661-1.93 1.152-2.903 1.473-.972.321-1.982.481-3.03.481-.991 0-1.909-.165-2.754-.496-.845-.33-1.572-.821-2.181-1.473-.609-.651-1.086-1.463-1.43-2.436-.345-.972-.517-2.105-.517-3.398 0-1.048.146-2.037.439-2.967.293-.93.729-1.742 1.31-2.436.581-.694 1.3-1.244 2.159-1.65.859-.406 1.86-.609 3.002-.609 1.104 0 2.027.168 2.768.503.741.335 1.345.779 1.813 1.331.467.552.821 1.182 1.062 1.89.241.708.408 1.43.503 2.167.047.359.078.722.092 1.09.014.368.021.727.021 1.076h-10.563zm4.121-5.848c-.614 0-1.149.087-1.607.262-.458.175-.847.425-1.168.75-.321.326-.578.725-.772 1.197-.194.472-.337 1.001-.432 1.586h7.604c-.038-.548-.125-1.053-.262-1.515-.137-.463-.347-.864-.63-1.204-.283-.34-.647-.604-1.09-.793-.444-.189-.991-.283-1.643-.283zm18.217 1.097c-.184-.278-.422-.505-.715-.68-.293-.175-.618-.302-.977-.382-.359-.08-.708-.12-1.048-.12-.378 0-.725.042-1.041.127-.316.085-.588.208-.814.368-.227.16-.404.356-.531.588-.127.231-.191.489-.191.772 0 .491.149.88.446 1.168.297.288.795.555 1.494.8l2.818.991c1.208.406 2.091.958 2.648 1.657.557.699.835 1.534.835 2.506 0 .651-.13 1.248-.389 1.791-.26.543-.628 1.005-1.104 1.388-.477.382-1.05.68-1.72.892-.67.212-1.416.319-2.237.319-1.142 0-2.072-.184-2.79-.552-.717-.368-1.27-.854-1.657-1.458h-1.473v-2.436h2.931c0 .406.087.753.262 1.041.175.288.406.522.694.701.288.179.614.312.977.396.363.085.734.127 1.112.127.368 0 .722-.045 1.062-.135.34-.09.64-.222.899-.396.26-.175.465-.385.616-.63.151-.245.227-.524.227-.835 0-.472-.153-.873-.46-1.204-.307-.33-.828-.628-1.565-.892l-2.804-1.048c-1.142-.406-1.989-.923-2.542-1.551-.552-.628-.828-1.414-.828-2.358 0-.623.116-1.199.347-1.728.231-.529.566-.984 1.005-1.366.439-.382.975-.682 1.607-.899.632-.217 1.355-.326 2.167-.326 1.048 0 1.926.146 2.634.439.708.293 1.345.793 1.912 1.501h1.374v2.436h-2.903c0-.396-.092-.734-.276-1.012zm10.117-2.924h3.441v2.138h-3.469l-.042 8.468c0 .576.066 1.043.198 1.402s.345.607.637.743c.293.137.623.205.991.205.396 0 .746-.035 1.048-.106.302-.071.632-.191.991-.361l.609 1.77c-.453.236-.93.422-1.43.559-.5.137-1.09.205-1.77.205-.642 0-1.201-.078-1.678-.234-.477-.156-.878-.418-1.204-.786-.326-.368-.569-.861-.729-1.48-.16-.618-.241-1.39-.241-2.315l.042-8.071h-2.336v-2.138h2.365v-3.512l2.577-1.218v4.729zm12.772 0h4.786v12.234h2.209v2.436h-6.967v-2.436h2.096v-9.799h-2.124v-2.436zm1.628-5.197c0-.245.05-.479.149-.701.099-.222.231-.415.396-.581.165-.165.361-.297.588-.396.227-.099.467-.149.722-.149.245 0 .479.05.701.149.222.099.415.231.581.396.165.165.297.359.396.581.099.222.149.455.149.701 0 .255-.05.496-.149.722-.099.227-.231.427-.396.602s-.359.312-.581.411c-.222.099-.455.149-.701.149-.255 0-.496-.05-.722-.149-.227-.099-.422-.236-.588-.411-.165-.175-.297-.375-.396-.602-.099-.227-.149-.467-.149-.722zm17.445 17.431h2.067v-6.698c0-1.123-.286-1.975-.857-2.556s-1.39-.871-2.457-.871c-.614 0-1.232.146-1.855.439-.623.293-1.213.656-1.77 1.09v8.595h2.067v2.436h-6.854v-2.436h2.039v-9.799h-2.039v-2.436h4.673v1.728h.028c.312-.274.644-.533.998-.779.354-.245.725-.458 1.112-.637.387-.179.791-.321 1.211-.425.42-.104.861-.156 1.324-.156.784 0 1.492.109 2.124.326.632.217 1.171.548 1.614.991.444.444.786 1.012 1.027 1.706.241.694.361 1.513.361 2.457v7.023h2.039v2.436h-6.854v-2.436zm24.681-19.598h4.63v19.598h2.152v2.436h-4.786v-1.204c-.472.481-1.02.857-1.643 1.126-.623.269-1.331.404-2.124.404-.991 0-1.914-.172-2.768-.517-.854-.345-1.595-.85-2.223-1.515-.628-.666-1.119-1.482-1.473-2.45-.354-.968-.531-2.074-.531-3.321 0-1.133.17-2.164.51-3.094.34-.93.821-1.723 1.444-2.379.623-.656 1.374-1.166 2.251-1.529.878-.363 1.855-.545 2.931-.545.708 0 1.355.078 1.94.234.585.156 1.147.427 1.685.814v-5.622h-1.997v-2.436zm-1.43 20.065c.784 0 1.44-.116 1.968-.347.529-.231 1.015-.578 1.458-1.041v-8.213c-.472-.396-1.015-.684-1.628-.864-.614-.179-1.241-.269-1.883-.269-.623 0-1.208.116-1.756.347-.548.231-1.027.569-1.437 1.012-.411.444-.734.986-.97 1.628-.236.642-.354 1.378-.354 2.209 0 .906.113 1.704.34 2.393.227.689.543 1.267.949 1.735.406.467.892.819 1.458 1.055s1.185.354 1.855.354zm13.226-5.027c0 .415.031.795.092 1.14.061.345.149.673.262.984.349.944.909 1.654 1.678 2.131.769.477 1.64.715 2.613.715.765 0 1.508-.106 2.23-.319.722-.212 1.48-.545 2.273-.998l1.062 1.798c-.963.661-1.93 1.152-2.903 1.473-.972.321-1.982.481-3.03.481-.991 0-1.909-.165-2.754-.496-.845-.33-1.572-.821-2.181-1.473-.609-.651-1.086-1.463-1.43-2.436-.345-.972-.517-2.105-.517-3.398 0-1.048.146-2.037.439-2.967.293-.93.729-1.742 1.31-2.436.581-.694 1.3-1.244 2.159-1.65.859-.406 1.86-.609 3.002-.609 1.104 0 2.027.168 2.768.503.741.335 1.345.779 1.813 1.331.467.552.821 1.182 1.062 1.89.241.708.408 1.43.503 2.167.047.359.078.722.092 1.09.014.368.021.727.021 1.076h-10.563zm4.121-5.848c-.614 0-1.149.087-1.607.262-.458.175-.847.425-1.168.75-.321.326-.578.725-.772 1.197-.194.472-.337 1.001-.432 1.586h7.604c-.038-.548-.125-1.053-.262-1.515-.137-.463-.347-.864-.63-1.204-.283-.34-.647-.604-1.09-.793-.444-.189-.991-.283-1.643-.283zm18.217 1.097c-.184-.278-.422-.505-.715-.68-.293-.175-.618-.302-.977-.382-.359-.08-.708-.12-1.048-.12-.378 0-.725.042-1.041.127-.316.085-.588.208-.814.368-.227.16-.404.356-.531.588-.127.231-.191.489-.191.772 0 .491.149.88.446 1.168.297.288.795.555 1.494.8l2.818.991c1.208.406 2.091.958 2.648 1.657.557.699.835 1.534.835 2.506 0 .651-.13 1.248-.389 1.791-.26.543-.628 1.005-1.104 1.388-.477.382-1.05.68-1.72.892-.67.212-1.416.319-2.237.319-1.142 0-2.072-.184-2.79-.552-.717-.368-1.27-.854-1.657-1.458h-1.473v-2.436h2.931c0 .406.087.753.262 1.041.175.288.406.522.694.701.288.179.614.312.977.396.363.085.734.127 1.112.127.368 0 .722-.045 1.062-.135.34-.09.64-.222.899-.396.26-.175.465-.385.616-.63.151-.245.227-.524.227-.835 0-.472-.153-.873-.46-1.204-.307-.33-.828-.628-1.565-.892l-2.804-1.048c-1.142-.406-1.989-.923-2.542-1.551-.552-.628-.828-1.414-.828-2.358 0-.623.116-1.199.347-1.728.231-.529.566-.984 1.005-1.366.439-.382.975-.682 1.607-.899.632-.217 1.355-.326 2.167-.326 1.048 0 1.926.146 2.634.439.708.293 1.345.793 1.912 1.501h1.374v2.436h-2.903c0-.396-.092-.734-.276-1.012zm5.756-2.924h4.786v12.234h2.209v2.436h-6.967v-2.436h2.096v-9.799h-2.124v-2.436zm1.628-5.197c0-.245.05-.479.149-.701.099-.222.231-.415.396-.581.165-.165.361-.297.588-.396.227-.099.467-.149.722-.149.245 0 .479.05.701.149.222.099.415.231.581.396.165.165.297.359.396.581.099.222.149.455.149.701 0 .255-.05.496-.149.722-.099.227-.231.427-.396.602s-.359.312-.581.411c-.222.099-.455.149-.701.149-.255 0-.496-.05-.722-.149-.227-.099-.422-.236-.588-.411-.165-.175-.297-.375-.396-.602-.099-.227-.149-.467-.149-.722zm18.521 18.578c-.481.51-1.041.906-1.678 1.189-.637.283-1.362.425-2.174.425-.991 0-1.914-.172-2.768-.517-.854-.345-1.595-.85-2.223-1.515-.628-.666-1.119-1.482-1.473-2.45-.354-.968-.531-2.074-.531-3.321 0-1.133.17-2.164.51-3.094.34-.93.821-1.723 1.444-2.379.623-.656 1.374-1.166 2.251-1.529.878-.363 1.855-.545 2.931-.545.736 0 1.399.083 1.99.248.59.165 1.163.451 1.72.857v-.75h2.634v14.089c0 2.322-.55 4.078-1.65 5.268-1.1 1.189-2.811 1.784-5.133 1.784-.51 0-1.043-.038-1.6-.113-.557-.076-1.107-.196-1.65-.361-.543-.165-1.071-.375-1.586-.63-.514-.255-.989-.566-1.423-.935l1.416-2.138c.283.245.607.472.97.68.363.208.753.385 1.168.531.415.146.845.262 1.289.347.444.085.887.127 1.331.127.727 0 1.357-.076 1.89-.227.533-.151.972-.418 1.317-.8.345-.382.602-.899.772-1.551.17-.651.255-1.477.255-2.478v-.212zm-3.512-.68c.434 0 .831-.042 1.189-.127.359-.085.684-.196.977-.333.293-.137.55-.295.772-.474.222-.179.413-.368.573-.566v-8.029c-.481-.425-1.036-.732-1.664-.92-.628-.189-1.272-.283-1.933-.283-.623 0-1.208.116-1.756.347-.548.231-1.027.569-1.437 1.012-.411.444-.734.986-.97 1.628-.236.642-.354 1.378-.354 2.209 0 .906.113 1.704.34 2.393.227.689.543 1.267.949 1.735.406.467.892.819 1.458 1.055s1.185.354 1.855.354zm19.428-.467h2.067v-6.698c0-1.123-.286-1.975-.857-2.556s-1.39-.871-2.457-.871c-.614 0-1.232.146-1.855.439-.623.293-1.213.656-1.77 1.09v8.595h2.067v2.436h-6.854v-2.436h2.039v-9.799h-2.039v-2.436h4.673v1.728h.028c.312-.274.644-.533.998-.779.354-.245.725-.458 1.112-.637.387-.179.791-.321 1.211-.425.42-.104.861-.156 1.324-.156.784 0 1.492.109 2.124.326.632.217 1.171.548 1.614.991.444.444.786 1.012 1.027 1.706.241.694.361 1.513.361 2.457v7.023h2.039v2.436h-6.854v-2.436zm24.653 1.076c-.557.519-1.173.944-1.848 1.274-.675.33-1.442.496-2.301.496-.717 0-1.376-.113-1.975-.34-.599-.227-1.116-.536-1.551-.927-.434-.392-.772-.847-1.012-1.366-.241-.519-.361-1.071-.361-1.657 0-.623.092-1.175.276-1.657.184-.481.43-.899.736-1.253.307-.354.666-.651 1.076-.892.411-.241.84-.434 1.289-.581.448-.146.906-.25 1.374-.312.467-.061.913-.092 1.338-.092.68 0 1.251.021 1.713.064.463.042.883.101 1.26.177l.014-1.204c0-.519-.076-.97-.227-1.352-.151-.382-.363-.699-.637-.949s-.602-.437-.984-.559c-.382-.123-.809-.184-1.281-.184-.444 0-.868.031-1.274.092s-.786.142-1.14.241c-.354.099-.68.212-.977.34-.297.127-.55.262-.758.404l-.864-1.827c.349-.227.732-.437 1.147-.63.415-.194.852-.359 1.31-.496.458-.137.925-.245 1.402-.326.477-.08.946-.12 1.409-.12.85 0 1.614.101 2.294.304.68.203 1.256.517 1.728.942.472.425.835.965 1.09 1.621.255.656.382 1.442.382 2.358l-.014 7.335h1.628v2.436h-4.262v-1.359zm-3.568-.439c.349 0 .699-.042 1.048-.127.349-.085.68-.201.991-.347.312-.146.599-.316.864-.51.264-.194.486-.394.666-.602l.014-3.313h-3.059c-.51 0-.975.057-1.395.17-.42.113-.784.278-1.09.496-.307.217-.545.486-.715.807-.17.321-.255.689-.255 1.104 0 .387.071.725.212 1.012.142.288.342.529.602.722.26.194.569.34.927.439.359.099.755.149 1.189.149zm20.461-.637h2.067v-6.698c0-1.123-.286-1.975-.857-2.556s-1.39-.871-2.457-.871c-.614 0-1.232.146-1.855.439-.623.293-1.213.656-1.77 1.09v8.595h2.067v2.436h-6.854v-2.436h2.039v-9.799h-2.039v-2.436h4.673v1.728h.028c.312-.274.644-.533.998-.779.354-.245.725-.458 1.112-.637.387-.179.791-.321 1.211-.425.42-.104.861-.156 1.324-.156.784 0 1.492.109 2.124.326.632.217 1.171.548 1.614.991.444.444.786 1.012 1.027 1.706.241.694.361 1.513.361 2.457v7.023h2.039v2.436h-6.854v-2.436zm18.337-19.598h4.63v19.598h2.152v2.436h-4.786v-1.204c-.472.481-1.02.857-1.643 1.126-.623.269-1.331.404-2.124.404-.991 0-1.914-.172-2.768-.517-.854-.345-1.595-.85-2.223-1.515-.628-.666-1.119-1.482-1.473-2.45-.354-.968-.531-2.074-.531-3.321 0-1.133.17-2.164.51-3.094.34-.93.821-1.723 1.444-2.379.623-.656 1.374-1.166 2.251-1.529.878-.363 1.855-.545 2.931-.545.708 0 1.355.078 1.94.234.585.156 1.147.427 1.685.814v-5.622h-1.997v-2.436zm-1.43 20.065c.784 0 1.44-.116 1.968-.347.529-.231 1.015-.578 1.458-1.041v-8.213c-.472-.396-1.015-.684-1.628-.864-.614-.179-1.241-.269-1.883-.269-.623 0-1.208.116-1.756.347-.548.231-1.027.569-1.437 1.012-.411.444-.734.986-.97 1.628-.236.642-.354 1.378-.354 2.209 0 .906.113 1.704.34 2.393.227.689.543 1.267.949 1.735.406.467.892.819 1.458 1.055s1.185.354 1.855.354zm25.269-9.778c-.184-.278-.422-.505-.715-.68-.293-.175-.618-.302-.977-.382-.359-.08-.708-.12-1.048-.12-.378 0-.725.042-1.041.127-.316.085-.588.208-.814.368-.227.16-.404.356-.531.588-.127.231-.191.489-.191.772 0 .491.149.88.446 1.168.297.288.795.555 1.494.8l2.818.991c1.208.406 2.091.958 2.648 1.657.557.699.835 1.534.835 2.506 0 .651-.13 1.248-.389 1.791-.26.543-.628 1.005-1.104 1.388-.477.382-1.05.68-1.72.892-.67.212-1.416.319-2.237.319-1.142 0-2.072-.184-2.79-.552-.717-.368-1.27-.854-1.657-1.458h-1.473v-2.436h2.931c0 .406.087.753.262 1.041.175.288.406.522.694.701.288.179.614.312.977.396.363.085.734.127 1.112.127.368 0 .722-.045 1.062-.135.34-.09.64-.222.899-.396.26-.175.465-.385.616-.63.151-.245.227-.524.227-.835 0-.472-.153-.873-.46-1.204-.307-.33-.828-.628-1.565-.892l-2.804-1.048c-1.142-.406-1.989-.923-2.542-1.551-.552-.628-.828-1.414-.828-2.358 0-.623.116-1.199.347-1.728.231-.529.566-.984 1.005-1.366.439-.382.975-.682 1.607-.899.632-.217 1.355-.326 2.167-.326 1.048 0 1.926.146 2.634.439.708.293 1.345.793 1.912 1.501h1.374v2.436h-2.903c0-.396-.092-.734-.276-1.012zm10.117-2.924h3.441v2.138h-3.469l-.042 8.468c0 .576.066 1.043.198 1.402s.345.607.637.743c.293.137.623.205.991.205.396 0 .746-.035 1.048-.106.302-.071.632-.191.991-.361l.609 1.77c-.453.236-.93.422-1.43.559-.5.137-1.09.205-1.77.205-.642 0-1.201-.078-1.678-.234-.477-.156-.878-.418-1.204-.786-.326-.368-.569-.861-.729-1.48-.16-.618-.241-1.39-.241-2.315l.042-8.071h-2.336v-2.138h2.365v-3.512l2.577-1.218v4.729zm17.091 3.101h-2.69v-.906c-.312 0-.63.059-.956.177-.326.118-.63.297-.913.538-.283.241-.531.548-.743.92-.212.373-.366.814-.46 1.324v7.08h2.492v2.436h-7.278v-2.436h2.025l.014-9.799h-2.039v-2.436h4.687v2.025c.17-.302.361-.583.573-.843.212-.26.448-.486.708-.68.26-.194.548-.345.864-.453.316-.109.658-.163 1.027-.163h1.388c.434 0 .868.009 1.303.028v3.186zm11.668 10.209c-.557.519-1.173.944-1.848 1.274-.675.33-1.442.496-2.301.496-.717 0-1.376-.113-1.975-.34-.599-.227-1.116-.536-1.551-.927-.434-.392-.772-.847-1.012-1.366-.241-.519-.361-1.071-.361-1.657 0-.623.092-1.175.276-1.657.184-.481.43-.899.736-1.253.307-.354.666-.651 1.076-.892.411-.241.84-.434 1.289-.581.448-.146.906-.25 1.374-.312.467-.061.913-.092 1.338-.092.68 0 1.251.021 1.713.064.463.042.883.101 1.26.177l.014-1.204c0-.519-.076-.97-.227-1.352-.151-.382-.363-.699-.637-.949s-.602-.437-.984-.559c-.382-.123-.809-.184-1.281-.184-.444 0-.868.031-1.274.092s-.786.142-1.14.241c-.354.099-.68.212-.977.34-.297.127-.55.262-.758.404l-.864-1.827c.349-.227.732-.437 1.147-.63.415-.194.852-.359 1.31-.496.458-.137.925-.245 1.402-.326.477-.08.946-.12 1.409-.12.85 0 1.614.101 2.294.304.68.203 1.256.517 1.728.942.472.425.835.965 1.09 1.621.255.656.382 1.442.382 2.358l-.014 7.335h1.628v2.436h-4.262v-1.359zm-3.568-.439c.349 0 .699-.042 1.048-.127.349-.085.68-.201.991-.347.312-.146.599-.316.864-.51.264-.194.486-.394.666-.602l.014-3.313h-3.059c-.51 0-.975.057-1.395.17-.42.113-.784.278-1.09.496-.307.217-.545.486-.715.807-.17.321-.255.689-.255 1.104 0 .387.071.725.212 1.012.142.288.342.529.602.722.26.194.569.34.927.439.359.099.755.149 1.189.149zm15.052-12.872h3.441v2.138h-3.469l-.042 8.468c0 .576.066 1.043.198 1.402s.345.607.637.743c.293.137.623.205.991.205.396 0 .746-.035 1.048-.106.302-.071.632-.191.991-.361l.609 1.77c-.453.236-.93.422-1.43.559-.5.137-1.09.205-1.77.205-.642 0-1.201-.078-1.678-.234-.477-.156-.878-.418-1.204-.786-.326-.368-.569-.861-.729-1.48-.16-.618-.241-1.39-.241-2.315l.042-8.071h-2.336v-2.138h2.365v-3.512l2.577-1.218v4.729zm9.034 7.675c0 .415.031.795.092 1.14.061.345.149.673.262.984.349.944.909 1.654 1.678 2.131.769.477 1.64.715 2.613.715.765 0 1.508-.106 2.23-.319.722-.212 1.48-.545 2.273-.998l1.062 1.798c-.963.661-1.93 1.152-2.903 1.473-.972.321-1.982.481-3.03.481-.991 0-1.909-.165-2.754-.496-.845-.33-1.572-.821-2.181-1.473-.609-.651-1.086-1.463-1.43-2.436-.345-.972-.517-2.105-.517-3.398 0-1.048.146-2.037.439-2.967.293-.93.729-1.742 1.31-2.436.581-.694 1.3-1.244 2.159-1.65.859-.406 1.86-.609 3.002-.609 1.104 0 2.027.168 2.768.503.741.335 1.345.779 1.813 1.331.467.552.821 1.182 1.062 1.89.241.708.408 1.43.503 2.167.047.359.078.722.092 1.09.014.368.021.727.021 1.076h-10.563zm4.121-5.848c-.614 0-1.149.087-1.607.262-.458.175-.847.425-1.168.75-.321.326-.578.725-.772 1.197-.194.472-.337 1.001-.432 1.586h7.604c-.038-.548-.125-1.053-.262-1.515-.137-.463-.347-.864-.63-1.204-.283-.34-.647-.604-1.09-.793-.444-.189-.991-.283-1.643-.283zm20.759 11.555c-.481.51-1.041.906-1.678 1.189-.637.283-1.362.425-2.174.425-.991 0-1.914-.172-2.768-.517-.854-.345-1.595-.85-2.223-1.515-.628-.666-1.119-1.482-1.473-2.45-.354-.968-.531-2.074-.531-3.321 0-1.133.17-2.164.51-3.094.34-.93.821-1.723 1.444-2.379.623-.656 1.374-1.166 2.251-1.529.878-.363 1.855-.545 2.931-.545.736 0 1.399.083 1.99.248.59.165 1.163.451 1.72.857v-.75h2.634v14.089c0 2.322-.55 4.078-1.65 5.268-1.1 1.189-2.811 1.784-5.133 1.784-.51 0-1.043-.038-1.6-.113-.557-.076-1.107-.196-1.65-.361-.543-.165-1.071-.375-1.586-.63-.514-.255-.989-.566-1.423-.935l1.416-2.138c.283.245.607.472.97.68.363.208.753.385 1.168.531.415.146.845.262 1.289.347.444.085.887.127 1.331.127.727 0 1.357-.076 1.89-.227.533-.151.972-.418 1.317-.8.345-.382.602-.899.772-1.551.17-.651.255-1.477.255-2.478v-.212zm-3.512-.68c.434 0 .831-.042 1.189-.127.359-.085.684-.196.977-.333.293-.137.55-.295.772-.474.222-.179.413-.368.573-.566v-8.029c-.481-.425-1.036-.732-1.664-.92-.628-.189-1.272-.283-1.933-.283-.623 0-1.208.116-1.756.347-.548.231-1.027.569-1.437 1.012-.411.444-.734.986-.97 1.628-.236.642-.354 1.378-.354 2.209 0 .906.113 1.704.34 2.393.227.689.543 1.267.949 1.735.406.467.892.819 1.458 1.055s1.185.354 1.855.354zm8.793-12.702h5.565v2.436h-1.742l3.441 9.36 3.597-9.36h-1.728v-2.436h5.565v2.436h-1.515l-6.528 16.468h2.011v2.436h-5.919v-2.436h1.784l1.558-4.036-4.899-12.433h-1.189v-2.436zm14.528 12.957c0-.245.05-.479.149-.701.099-.222.234-.415.404-.581.17-.165.366-.297.588-.396.222-.099.46-.149.715-.149.245 0 .479.05.701.149.222.099.415.231.581.396.165.165.297.359.396.581.099.222.149.455.149.701 0 .255-.05.496-.149.722-.099.227-.231.427-.396.602s-.359.312-.581.411c-.222.099-.455.149-.701.149-.255 0-.493-.05-.715-.149-.222-.099-.418-.236-.588-.411-.17-.175-.304-.375-.404-.602-.099-.227-.149-.467-.149-.722z" fill="#6F6F6F"/></g></svg>