<svg width="710" height="417" xmlns="http://www.w3.org/2000/svg" xmlns:sketch="http://www.bohemiancoding.com/sketch/ns"><title>Russell-Hoy-1</title><desc>Created with Sketch.</desc><defs><linearGradient x1="50%" y1="0%" x2="50%" y2="96.317%" id="a"><stop stop-color="#FDFDFD" offset="0%"/><stop stop-color="#EBEEF0" offset="100%"/></linearGradient></defs><g sketch:type="MSLayerGroup" fill="none"><animate attributeName="d" dur="1000ms" repeatCount="indefinite" calcMode="spline" values="M107.873374,67.0219449 C111.083985,67.0219449 114.048194,67.4494078 116.766088,68.3043464 C119.483982,69.159285 121.836276,70.4174777 123.823041,72.0789622 C125.809806,73.7404467 127.359459,75.8132384 128.472047,78.2973997 C129.584636,80.781561 130.140921,83.6366905 130.140921,86.862874 C130.140921,88.7017985 129.815097,90.5164995 129.163438,92.3070313 C128.511779,94.0975631 127.605828,95.7590227 126.445558,97.2914598 C125.285287,98.823897 123.910466,100.186939 122.321055,101.380627 C120.731643,102.574315 118.99921,103.493763 117.123704,104.139 C117.91841,104.49388 118.721051,105.001996 119.531651,105.663364 C120.342251,106.324732 121.105157,107.131265 121.820392,108.08299 C122.535628,109.034714 123.187277,110.115469 123.775359,111.325288 C124.363441,112.535107 124.832311,113.833626 125.181981,115.220885 L129.187279,131.190413 L135.433636,131.190413 L135.529,140.38499 L121.462776,140.38499 L116.074697,118.076043 C115.089262,114.075575 113.58729,111.131727 111.568737,109.24441 C109.550184,107.357092 106.792596,106.413448 103.29589,106.413448 L93.9978779,106.413448 L93.9978779,132.061478 L101.245559,132.061478 L101.245559,140.38499 L77.7859587,140.38499 L77.7859587,132.061478 L84.6521833,132.061478 L84.6521833,75.3938491 L77.7859587,75.3938491 L77.7859587,67.0219449 L107.873374,67.0219449 Z M93.9978779,75.3938491 L93.9978779,98.4770763 L107.873374,98.4770763 C109.685303,98.4770763 111.346213,98.2351162 112.856155,97.7511887 C114.366096,97.2672612 115.669394,96.5413808 116.766088,95.5735257 C117.862782,94.6056707 118.721052,93.4039354 119.340922,91.9682838 C119.960793,90.5326321 120.270724,88.8631072 120.270724,86.959659 C120.270724,83.3140717 119.18994,80.4750728 117.02834,78.4425772 C114.86674,76.4100817 111.433662,75.3938491 106.729003,75.3938491 L93.9978779,75.3938491 L93.9978779,75.3938491 Z M175.009792,90.2503497 L190.935619,90.2503497 L190.935619,132.061478 L196.419062,132.061478 L196.419062,140.38499 L182.019063,140.38499 L182.019063,135.739309 C179.793887,137.481448 177.37007,138.836425 174.74754,139.80428 C172.125011,140.772135 169.319741,141.256055 166.331647,141.256055 C163.852165,141.256055 161.603181,140.893115 159.584628,140.167224 C157.566075,139.441332 155.849536,138.312185 154.434959,136.779748 C153.020383,135.247311 151.931652,133.303564 151.168734,130.94845 C150.405817,128.593337 150.024364,125.786599 150.024364,122.528154 L150.024364,98.5738614 L143.348867,98.5738614 L143.348867,90.2503497 L159.274694,90.2503497 L159.274694,121.463519 C159.274694,125.302677 160.148857,128.206198 161.89721,130.17417 C163.645563,132.142142 166.156796,133.126113 169.430985,133.126113 C171.370067,133.126113 173.412431,132.771239 175.558136,132.061478 C177.703842,131.351718 179.730312,130.367747 181.637606,129.109535 L181.637606,98.5738614 L175.009792,98.5738614 L175.009792,90.2503497 L175.009792,90.2503497 Z M237.211112,100.243403 C236.591241,99.2916788 235.7886,98.5174064 234.803165,97.9205625 C233.81773,97.3237185 232.721052,96.8881903 231.513099,96.6139647 C230.305146,96.3397391 229.128999,96.2026284 227.984622,96.2026284 C226.713093,96.2026284 225.544893,96.3478044 224.479987,96.638161 C223.415081,96.9285175 222.501183,97.347915 221.738265,97.8963662 C220.975348,98.4448174 220.379327,99.1142404 219.950186,99.9046554 C219.521045,100.69507 219.306477,101.574192 219.306477,102.542047 C219.306477,104.219663 219.807135,105.550443 220.808464,106.534429 C221.809793,107.518415 223.486598,108.429798 225.838927,109.268606 L235.327668,112.656082 C239.396562,114.043341 242.368718,115.93063 244.244224,118.318005 C246.11973,120.705381 247.057469,123.560511 247.057469,126.88348 C247.057469,129.109546 246.620387,131.150077 245.74621,133.005132 C244.872034,134.860188 243.632311,136.440994 242.027005,137.747598 C240.421699,139.054202 238.490593,140.070435 236.233628,140.796326 C233.976664,141.522218 231.465431,141.885158 228.699854,141.885158 C224.853478,141.885158 221.722383,141.256061 219.306477,139.99785 C216.890571,138.739638 215.030988,137.078179 213.72767,135.013421 L208.76873,135.013421 L208.76873,126.68991 L218.638928,126.68991 C218.638928,128.077169 218.932965,129.262773 219.521047,130.246759 C220.109129,131.230745 220.887929,132.029213 221.857471,132.642188 C222.827012,133.255163 223.923689,133.706822 225.147537,133.997179 C226.371384,134.287535 227.619053,134.432711 228.890583,134.432711 C230.130324,134.432711 231.322365,134.27947 232.466741,133.972982 C233.611118,133.666495 234.620379,133.214836 235.494556,132.617992 C236.368732,132.021148 237.060116,131.303333 237.568728,130.464525 C238.077339,129.625718 238.331641,128.674008 238.331641,127.609367 C238.331641,125.996276 237.81509,124.625168 236.781973,123.496004 C235.748855,122.36684 233.992581,121.350607 231.513099,120.447276 L222.07204,116.86623 C218.225664,115.478971 215.372712,113.712662 213.5131,111.56725 C211.653489,109.421838 210.723697,106.736081 210.723697,103.509897 C210.723697,101.380616 211.113097,99.4126739 211.891908,97.6060112 C212.67072,95.7993484 213.799186,94.2427383 215.277339,92.936134 C216.755492,91.6295297 218.559447,90.6052318 220.689259,89.8632096 C222.819071,89.1211874 225.250834,88.7501818 227.984622,88.7501818 C231.513117,88.7501818 234.469378,89.2502328 236.853496,90.2503497 C239.237614,91.2504665 241.383287,92.9603181 243.290581,95.3799557 L247.915747,95.3799557 L247.915747,103.703467 L238.140913,103.703467 C238.140913,102.34847 237.830982,101.195127 237.211112,100.243403 L237.211112,100.243403 L237.211112,100.243403 Z M284.559452,100.243403 C283.939582,99.2916788 283.136941,98.5174064 282.151506,97.9205625 C281.16607,97.3237185 280.069393,96.8881903 278.86144,96.6139647 C277.653487,96.3397391 276.47734,96.2026284 275.332963,96.2026284 C274.061434,96.2026284 272.893233,96.3478044 271.828328,96.638161 C270.763422,96.9285175 269.849524,97.347915 269.086606,97.8963662 C268.323688,98.4448174 267.727668,99.1142404 267.298527,99.9046554 C266.869385,100.69507 266.654818,101.574192 266.654818,102.542047 C266.654818,104.219663 267.155475,105.550443 268.156805,106.534429 C269.158134,107.518415 270.834938,108.429798 273.187268,109.268606 L282.676009,112.656082 C286.744903,114.043341 289.717058,115.93063 291.592564,118.318005 C293.46807,120.705381 294.405809,123.560511 294.405809,126.88348 C294.405809,129.109546 293.968728,131.150077 293.094551,133.005132 C292.220375,134.860188 290.980652,136.440994 289.375346,137.747598 C287.77004,139.054202 285.838934,140.070435 283.581969,140.796326 C281.325004,141.522218 278.813771,141.885158 276.048195,141.885158 C272.201818,141.885158 269.070724,141.256061 266.654818,139.99785 C264.238912,138.739638 262.379328,137.078179 261.076011,135.013421 L256.117071,135.013421 L256.117071,126.68991 L265.987268,126.68991 C265.987268,128.077169 266.281305,129.262773 266.869388,130.246759 C267.45747,131.230745 268.23627,132.029213 269.205811,132.642188 C270.175352,133.255163 271.27203,133.706822 272.495877,133.997179 C273.719724,134.287535 274.967394,134.432711 276.238923,134.432711 C277.478664,134.432711 278.670705,134.27947 279.815082,133.972982 C280.959458,133.666495 281.96872,133.214836 282.842896,132.617992 C283.717073,132.021148 284.408456,131.303333 284.917068,130.464525 C285.42568,129.625718 285.679982,128.674008 285.679982,127.609367 C285.679982,125.996276 285.163431,124.625168 284.130313,123.496004 C283.097196,122.36684 281.340922,121.350607 278.86144,120.447276 L269.420381,116.86623 C265.574004,115.478971 262.721053,113.712662 260.861441,111.56725 C259.001829,109.421838 258.072037,106.736081 258.072037,103.509897 C258.072037,101.380616 258.461437,99.4126739 259.240249,97.6060112 C260.019061,95.7993484 261.147526,94.2427383 262.625679,92.936134 C264.103832,91.6295297 265.907788,90.6052318 268.037599,89.8632096 C270.167411,89.1211874 272.599175,88.7501818 275.332963,88.7501818 C278.861457,88.7501818 281.817719,89.2502328 284.201837,90.2503497 C286.585954,91.2504665 288.731628,92.9603181 290.638922,95.3799557 L295.264087,95.3799557 L295.264087,103.703467 L285.489254,103.703467 C285.489254,102.34847 285.179323,101.195127 284.559452,100.243403 L284.559452,100.243403 L284.559452,100.243403 Z M312.715742,116.47909 C312.715742,117.898611 312.819052,119.19713 313.025675,120.374687 C313.232299,121.552244 313.526336,122.673326 313.907794,123.737967 C315.083959,126.96415 316.967384,129.391817 319.558125,131.021039 C322.148866,132.650262 325.081287,133.464861 328.355475,133.464861 C330.930323,133.464861 333.433609,133.101921 335.865409,132.37603 C338.297209,131.650138 340.848176,130.512926 343.518388,128.964358 L347.094547,135.110206 C343.852147,137.368535 340.593901,139.046125 337.319713,140.143027 C334.045525,141.23993 330.644235,141.788373 327.11574,141.788373 C323.777976,141.788373 320.686616,141.223799 317.841569,140.094635 C314.996522,138.965471 312.548864,137.28788 310.498523,135.061814 C308.448182,132.835747 306.8429,130.061271 305.68263,126.738302 C304.522359,123.415333 303.942232,119.543971 303.942232,115.1241 C303.942232,111.543036 304.434943,108.16366 305.420378,104.985869 C306.405813,101.808078 307.875997,99.0336021 309.830974,96.6623572 C311.78595,94.2911124 314.209767,92.4118887 317.102496,91.0246298 C319.995226,89.6373709 323.364728,88.9437519 327.211105,88.9437519 C330.930328,88.9437519 334.037582,89.5163909 336.532958,90.661686 C339.028335,91.8069811 341.062751,93.3232646 342.636269,95.2105819 C344.209787,97.0978992 345.401828,99.2513444 346.212428,101.670982 C347.023028,104.09062 347.58726,106.558613 347.905143,109.075036 C348.064084,110.300986 348.167394,111.543048 348.215077,112.801259 C348.262759,114.059471 348.2866,115.285402 348.2866,116.47909 L312.715742,116.47909 L312.715742,116.47909 Z M326.591237,96.4929834 C324.525002,96.4929834 322.721046,96.7914009 321.179317,97.3882449 C319.637588,97.9850888 318.326343,98.8400146 317.245543,99.9530479 C316.164743,101.066081 315.298526,102.429123 314.646867,104.042215 C313.995208,105.655307 313.510445,107.461942 313.192563,109.462176 L338.797859,109.462176 C338.670706,107.59099 338.376669,105.865007 337.91574,104.284178 C337.45481,102.703348 336.747533,101.33224 335.793885,100.170814 C334.840238,99.0093881 333.61641,98.1060703 332.122363,97.4608336 C330.628315,96.8155969 328.784625,96.4929834 326.591237,96.4929834 L326.591237,96.4929834 L326.591237,96.4929834 Z M359.968718,65.0862445 L375.989909,65.0862445 L375.989909,132.061478 L383.428319,132.061478 L383.428319,140.38499 L359.968718,140.38499 L359.968718,132.061478 L367.121035,132.061478 L367.121035,73.4097562 L359.968718,73.4097562 L359.968718,65.0862445 L359.968718,65.0862445 Z M391.725007,65.0862445 L407.746198,65.0862445 L407.746198,132.061478 L415.184608,132.061478 L415.184608,140.38499 L391.725007,140.38499 L391.725007,132.061478 L398.877324,132.061478 L398.877324,73.4097562 L391.725007,73.4097562 L391.725007,65.0862445 L391.725007,65.0862445 Z M498.056124,67.0219449 L521.515725,67.0219449 L521.515725,75.3454566 L514.649501,75.3454566 L514.649501,132.061478 L521.515725,132.061478 L521.515725,140.38499 L498.056124,140.38499 L498.056124,132.061478 L505.303806,132.061478 L505.303806,105.68756 L463.486591,105.68756 L463.486591,132.061478 L470.734272,132.061478 L470.734272,140.38499 L447.274671,140.38499 L447.274671,132.061478 L454.140896,132.061478 L454.140896,75.3454566 L447.274671,75.3454566 L447.274671,67.0219449 L470.734272,67.0219449 L470.734272,75.3454566 L463.486591,75.3454566 L463.486591,97.5576186 L505.303806,97.5576186 L505.303806,75.3454566 L498.056124,75.3454566 L498.056124,67.0219449 L498.056124,67.0219449 Z M532.43493,115.31767 C532.466718,111.349464 533.094526,107.736193 534.318373,104.477748 C535.54222,101.219302 537.250812,98.4206301 539.444201,96.0816471 C541.637589,93.7426641 544.244185,91.9440938 547.264068,90.6858822 C550.28395,89.4276707 553.605771,88.7985744 557.22963,88.7985744 C560.885277,88.7985744 564.230938,89.4276707 567.266715,90.6858822 C570.302491,91.9440938 572.901141,93.7265334 575.062741,96.0332546 C577.224341,98.3399758 578.909092,101.122517 580.117045,104.380963 C581.324998,107.639408 581.928965,111.252679 581.928965,115.220885 C581.928965,119.124567 581.324998,122.713642 580.117045,125.988218 C578.909092,129.262794 577.224341,132.077597 575.062741,134.432711 C572.901141,136.787825 570.302491,138.618657 567.266715,139.925261 C564.230938,141.231865 560.885277,141.885158 557.22963,141.885158 C553.510406,141.885158 550.140904,141.239931 547.121021,139.949457 C544.101139,138.658984 541.510436,136.844283 539.348836,134.5053 C537.187236,132.166317 535.502485,129.367645 534.294532,126.109199 C533.086579,122.850754 532.466718,119.253614 532.43493,115.31767 L532.43493,115.31767 L532.43493,115.31767 Z M541.828306,115.31767 C541.828306,118.188973 542.2336,120.786012 543.0442,123.108864 C543.8548,125.431716 544.967372,127.407724 546.381948,129.036946 C547.796525,130.666169 549.433594,131.924362 551.293206,132.811562 C553.152818,133.698763 555.131606,134.142356 557.22963,134.142356 C559.423018,134.142356 561.465381,133.706828 563.356781,132.835758 C565.248182,131.964689 566.893198,130.714562 568.29188,129.085339 C569.690563,127.456116 570.787241,125.480108 571.581946,123.157256 C572.376652,120.834404 572.773999,118.221235 572.773999,115.31767 C572.773999,112.285057 572.376652,109.591235 571.581946,107.236121 C570.787241,104.881007 569.69851,102.913064 568.315721,101.332234 C566.932933,99.7514045 565.287917,98.5577346 563.380623,97.7511887 C561.473328,96.9446428 559.423018,96.5413759 557.22963,96.5413759 C555.131606,96.5413759 553.152818,96.9446428 551.293206,97.7511887 C549.433594,98.5577346 547.796525,99.7514045 546.381948,101.332234 C544.967372,102.913064 543.8548,104.881007 543.0442,107.236121 C542.2336,109.591235 541.828306,112.285057 541.828306,115.31767 L541.828306,115.31767 L541.828306,115.31767 Z M0.511050687,0.257220594 L710.000003,0.257220594 L710,504.257221 L355.255527,504.257215 L0.511050687,504.257215 L0.511050687,0.257220594 Z M588.223005,90.2503497 L606.962076,90.2503497 L606.962076,98.5738614 L601.097176,98.5738614 L612.68393,130.56131 L624.795187,98.5738614 L618.977969,98.5738614 L618.977969,90.2503497 L637.717041,90.2503497 L637.717041,98.5738614 L632.615054,98.5738614 L610.633599,154.85435 L617.404459,154.85435 L617.404459,163.177862 L597.473335,163.177862 L597.473335,154.85435 L603.481282,154.85435 L608.726314,141.062485 L592.228302,98.5738614 L588.223005,98.5738614 L588.223005,90.2503497 Z M678,435.757316 L678.000003,322.257221 L28.5110507,322.257221 L28.5110507,435.757312 L304.034443,436.024681 L355.526187,485.818546 L407.037416,436.070268 L678,435.757316 Z M320.991941,405.770116 L343.483572,405.561639 L343.194917,338.13105 L370.120662,338.333561 L369.657355,405.613074 L390.513518,405.507297 L355.62132,440.399495 L320.991941,405.770116 Z"/><path d="M107.873 67.022c3.211 0 6.175.427 8.893 1.282 2.718.855 5.07 2.113 7.057 3.775 1.987 1.661 3.536 3.734 4.649 6.218s1.669 5.339 1.669 8.565c0 1.839-.326 3.654-.977 5.444-.652 1.791-1.558 3.452-2.718 4.984s-2.535 2.895-4.125 4.089c-1.589 1.194-3.322 2.113-5.197 2.758.795.355 1.597.863 2.408 1.524.811.661 1.574 1.468 2.289 2.42.715.952 1.367 2.032 1.955 3.242.588 1.21 1.057 2.508 1.407 3.896l4.005 15.97h6.246l.095 9.195h-14.066l-5.388-22.309c-.985-4-2.487-6.944-4.506-8.832-2.019-1.887-4.776-2.831-8.273-2.831h-9.298v25.648h7.248v8.324h-23.46v-8.324h6.866v-56.668h-6.866v-8.372h30.087zm-13.875 8.372v23.083h13.875c1.812 0 3.473-.242 4.983-.726 1.51-.484 2.813-1.21 3.91-2.178s1.955-2.17 2.575-3.605c.62-1.436.93-3.105.93-5.009 0-3.646-1.081-6.485-3.242-8.517-2.162-2.032-5.595-3.049-10.299-3.049h-12.731zm81.012 14.857h15.926v41.811h5.483v8.324h-14.4v-4.646c-2.225 1.742-4.649 3.097-7.272 4.065-2.623.968-5.428 1.452-8.416 1.452-2.479 0-4.728-.363-6.747-1.089s-3.735-1.855-5.15-3.387c-1.415-1.532-2.503-3.476-3.266-5.831-.763-2.355-1.144-5.162-1.144-8.42v-23.954h-6.675v-8.324h15.926v31.213c0 3.839.874 6.743 2.623 8.711 1.748 1.968 4.26 2.952 7.534 2.952 1.939 0 3.981-.355 6.127-1.065s4.172-1.694 6.079-2.952v-30.536h-6.628v-8.324zm62.201 9.993c-.62-.952-1.423-1.726-2.408-2.323-.985-.597-2.082-1.032-3.29-1.307-1.208-.274-2.384-.411-3.528-.411-1.272 0-2.44.145-3.505.436-1.065.29-1.979.71-2.742 1.258-.763.548-1.359 1.218-1.788 2.008-.429.79-.644 1.67-.644 2.637 0 1.678.501 3.008 1.502 3.992s2.678 1.895 5.03 2.734l9.489 3.387c4.069 1.387 7.041 3.275 8.917 5.662 1.876 2.387 2.813 5.243 2.813 8.565 0 2.226-.437 4.267-1.311 6.122-.874 1.855-2.114 3.436-3.719 4.742-1.605 1.307-3.536 2.323-5.793 3.049s-4.768 1.089-7.534 1.089c-3.846 0-6.977-.629-9.393-1.887-2.416-1.258-4.275-2.92-5.579-4.984h-4.959v-8.324h9.87c0 1.387.294 2.573.882 3.557.588.984 1.367 1.782 2.336 2.395.97.613 2.066 1.065 3.29 1.355 1.224.29 2.472.436 3.743.436 1.24 0 2.432-.153 3.576-.46 1.144-.306 2.154-.758 3.028-1.355.874-.597 1.566-1.315 2.074-2.153.509-.839.763-1.791.763-2.855 0-1.613-.517-2.984-1.55-4.113-1.033-1.129-2.789-2.145-5.269-3.049l-9.441-3.581c-3.846-1.387-6.699-3.154-8.559-5.299-1.86-2.145-2.789-4.831-2.789-8.057 0-2.129.389-4.097 1.168-5.904.779-1.807 1.907-3.363 3.385-4.67 1.478-1.307 3.282-2.331 5.412-3.073s4.562-1.113 7.295-1.113c3.528 0 6.485.5 8.869 1.5 2.384 1 4.53 2.71 6.437 5.13h4.625v8.324h-9.775c0-1.355-.31-2.508-.93-3.46zm47.348 0c-.62-.952-1.423-1.726-2.408-2.323-.985-.597-2.082-1.032-3.29-1.307-1.208-.274-2.384-.411-3.528-.411-1.272 0-2.44.145-3.505.436-1.065.29-1.979.71-2.742 1.258-.763.548-1.359 1.218-1.788 2.008-.429.79-.644 1.67-.644 2.637 0 1.678.501 3.008 1.502 3.992s2.678 1.895 5.03 2.734l9.489 3.387c4.069 1.387 7.041 3.275 8.917 5.662 1.876 2.387 2.813 5.243 2.813 8.565 0 2.226-.437 4.267-1.311 6.122-.874 1.855-2.114 3.436-3.719 4.742-1.605 1.307-3.536 2.323-5.793 3.049s-4.768 1.089-7.534 1.089c-3.846 0-6.977-.629-9.393-1.887-2.416-1.258-4.275-2.92-5.579-4.984h-4.959v-8.324h9.87c0 1.387.294 2.573.882 3.557.588.984 1.367 1.782 2.336 2.395.97.613 2.066 1.065 3.29 1.355 1.224.29 2.472.436 3.743.436 1.24 0 2.432-.153 3.576-.46 1.144-.306 2.154-.758 3.028-1.355.874-.597 1.566-1.315 2.074-2.153.509-.839.763-1.791.763-2.855 0-1.613-.517-2.984-1.55-4.113-1.033-1.129-2.789-2.145-5.269-3.049l-9.441-3.581c-3.846-1.387-6.699-3.154-8.559-5.299-1.86-2.145-2.789-4.831-2.789-8.057 0-2.129.389-4.097 1.168-5.904.779-1.807 1.907-3.363 3.385-4.67 1.478-1.307 3.282-2.331 5.412-3.073s4.562-1.113 7.295-1.113c3.528 0 6.485.5 8.869 1.5 2.384 1 4.53 2.71 6.437 5.13h4.625v8.324h-9.775c0-1.355-.31-2.508-.93-3.46zm28.156 16.236c0 1.42.103 2.718.31 3.896.207 1.178.501 2.299.882 3.363 1.176 3.226 3.06 5.654 5.65 7.283 2.591 1.629 5.523 2.444 8.797 2.444 2.575 0 5.078-.363 7.51-1.089 2.432-.726 4.983-1.863 7.653-3.412l3.576 6.146c-3.242 2.258-6.501 3.936-9.775 5.033-3.274 1.097-6.675 1.645-10.204 1.645-3.338 0-6.429-.565-9.274-1.694-2.845-1.129-5.293-2.807-7.343-5.033-2.05-2.226-3.656-5.001-4.816-8.324-1.16-3.323-1.74-7.194-1.74-11.614 0-3.581.493-6.96 1.478-10.138s2.456-5.952 4.411-8.324c1.955-2.371 4.379-4.25 7.272-5.638 2.893-1.387 6.262-2.081 10.109-2.081 3.719 0 6.826.573 9.322 1.718 2.495 1.145 4.53 2.662 6.103 4.549 1.574 1.887 2.766 4.041 3.576 6.46.811 2.42 1.375 4.888 1.693 7.404.159 1.226.262 2.468.31 3.726.048 1.258.072 2.484.072 3.678h-35.571zm13.875-19.986c-2.066 0-3.87.298-5.412.895-1.542.597-2.853 1.452-3.934 2.565s-1.947 2.476-2.599 4.089c-.652 1.613-1.136 3.42-1.454 5.42h25.605c-.127-1.871-.421-3.597-.882-5.178s-1.168-2.952-2.122-4.113c-.954-1.161-2.177-2.065-3.672-2.71-1.494-.645-3.338-.968-5.531-.968zm33.377-31.407h16.021v66.975h7.438v8.324h-23.46v-8.324h7.152v-58.652h-7.152v-8.324zm31.756 0h16.021v66.975h7.438v8.324h-23.46v-8.324h7.152v-58.652h-7.152v-8.324zm106.331 1.936h23.46v8.324h-6.866v56.716h6.866v8.324h-23.46v-8.324h7.248v-26.374h-41.817v26.374h7.248v8.324h-23.46v-8.324h6.866v-56.716h-6.866v-8.324h23.46v8.324h-7.248v22.212h41.817v-22.212h-7.248v-8.324zm34.379 48.296c.032-3.968.66-7.581 1.883-10.84 1.224-3.258 2.932-6.057 5.126-8.396 2.193-2.339 4.8-4.138 7.82-5.396 3.02-1.258 6.342-1.887 9.966-1.887 3.656 0 7.001.629 10.037 1.887 3.036 1.258 5.634 3.041 7.796 5.347 2.162 2.307 3.846 5.089 5.054 8.348 1.208 3.258 1.812 6.872 1.812 10.84 0 3.904-.604 7.493-1.812 10.767-1.208 3.275-2.893 6.089-5.054 8.444-2.162 2.355-4.76 4.186-7.796 5.493-3.036 1.307-6.381 1.96-10.037 1.96-3.719 0-7.089-.645-10.109-1.936-3.02-1.29-5.611-3.105-7.772-5.444-2.162-2.339-3.846-5.138-5.054-8.396-1.208-3.258-1.828-6.856-1.86-10.792zm9.393 0c0 2.871.405 5.468 1.216 7.791.811 2.323 1.923 4.299 3.338 5.928 1.415 1.629 3.052 2.887 4.911 3.775 1.86.887 3.838 1.331 5.936 1.331 2.193 0 4.236-.436 6.127-1.307s3.536-2.121 4.935-3.75c1.399-1.629 2.495-3.605 3.29-5.928.795-2.323 1.192-4.936 1.192-7.84 0-3.033-.397-5.726-1.192-8.082-.795-2.355-1.883-4.323-3.266-5.904-1.383-1.581-3.028-2.774-4.935-3.581-1.907-.807-3.958-1.21-6.151-1.21-2.098 0-4.077.403-5.936 1.21-1.86.807-3.497 2-4.911 3.581-1.415 1.581-2.527 3.549-3.338 5.904-.811 2.355-1.216 5.049-1.216 8.082zm-123.817 238.44h291.989v-353.5h-709.489v353.5h292.5l62.5 62.5 62.5-62.5zm170.212-263.507h18.739v8.324h-5.865l11.587 31.987 12.111-31.987h-5.817v-8.324h18.739v8.324h-5.102l-21.981 56.28h6.771v8.324h-19.931v-8.324h6.008l5.245-13.792-16.498-42.489h-4.005v-8.324zm89.777 245.507v-13.5h-649.489v13.5l275.523.267 51.492 49.794 51.511-49.748 270.963-.313z" fill="url(#a)" sketch:type="MSShapeGroup"/><path d="M320.875 336.175l69.511-.263-34.887 34.887-34.624-34.624z" fill="#F0F0F0" sketch:type="MSShapeGroup"/></g></svg>