<svg width="710" height="417" xmlns="http://www.w3.org/2000/svg" xmlns:sketch="http://www.bohemiancoding.com/sketch/ns"><title>Russell-Hoy-1</title><desc>Created with Sketch.</desc><defs><linearGradient x1="50%" y1="0%" x2="50%" y2="96.317%" id="a"><stop stop-color="#FDFDFD" offset="0%"/><stop stop-color="#EBEEF0" offset="100%"/></linearGradient></defs><g sketch:type="MSLayerGroup" fill="none"><path d="M107.873 67.022c3.211 0 6.175.427 8.893 1.282 2.718.855 5.07 2.113 7.057 3.775 1.987 1.661 3.536 3.734 4.649 6.218s1.669 5.339 1.669 8.565c0 1.839-.326 3.654-.977 5.444-.652 1.791-1.558 3.452-2.718 4.984s-2.535 2.895-4.125 4.089c-1.589 1.194-3.322 2.113-5.197 2.758.795.355 1.597.863 2.408 1.524.811.661 1.574 1.468 2.289 2.42.715.952 1.367 2.032 1.955 3.242.588 1.21 1.057 2.508 1.407 3.896l4.005 15.97h6.246l.095 9.195h-14.066l-5.388-22.309c-.985-4-2.487-6.944-4.506-8.832-2.019-1.887-4.776-2.831-8.273-2.831h-9.298v25.648h7.248v8.324h-23.46v-8.324h6.866v-56.668h-6.866v-8.372h30.087zm-13.875 8.372v23.083h13.875c1.812 0 3.473-.242 4.983-.726 1.51-.484 2.813-1.21 3.91-2.178s1.955-2.17 2.575-3.605c.62-1.436.93-3.105.93-5.009 0-3.646-1.081-6.485-3.242-8.517-2.162-2.032-5.595-3.049-10.299-3.049h-12.731zm81.012 14.857h15.926v41.811h5.483v8.324h-14.4v-4.646c-2.225 1.742-4.649 3.097-7.272 4.065-2.623.968-5.428 1.452-8.416 1.452-2.479 0-4.728-.363-6.747-1.089s-3.735-1.855-5.15-3.387c-1.415-1.532-2.503-3.476-3.266-5.831-.763-2.355-1.144-5.162-1.144-8.42v-23.954h-6.675v-8.324h15.926v31.213c0 3.839.874 6.743 2.623 8.711 1.748 1.968 4.26 2.952 7.534 2.952 1.939 0 3.981-.355 6.127-1.065s4.172-1.694 6.079-2.952v-30.536h-6.628v-8.324zm62.201 9.993c-.62-.952-1.423-1.726-2.408-2.323-.985-.597-2.082-1.032-3.29-1.307-1.208-.274-2.384-.411-3.528-.411-1.272 0-2.44.145-3.505.436-1.065.29-1.979.71-2.742 1.258-.763.548-1.359 1.218-1.788 2.008-.429.79-.644 1.67-.644 2.637 0 1.678.501 3.008 1.502 3.992s2.678 1.895 5.03 2.734l9.489 3.387c4.069 1.387 7.041 3.275 8.917 5.662 1.876 2.387 2.813 5.243 2.813 8.565 0 2.226-.437 4.267-1.311 6.122-.874 1.855-2.114 3.436-3.719 4.742-1.605 1.307-3.536 2.323-5.793 3.049s-4.768 1.089-7.534 1.089c-3.846 0-6.977-.629-9.393-1.887-2.416-1.258-4.275-2.92-5.579-4.984h-4.959v-8.324h9.87c0 1.387.294 2.573.882 3.557.588.984 1.367 1.782 2.336 2.395.97.613 2.066 1.065 3.29 1.355 1.224.29 2.472.436 3.743.436 1.24 0 2.432-.153 3.576-.46 1.144-.306 2.154-.758 3.028-1.355.874-.597 1.566-1.315 2.074-2.153.509-.839.763-1.791.763-2.855 0-1.613-.517-2.984-1.55-4.113-1.033-1.129-2.789-2.145-5.269-3.049l-9.441-3.581c-3.846-1.387-6.699-3.154-8.559-5.299-1.86-2.145-2.789-4.831-2.789-8.057 0-2.129.389-4.097 1.168-5.904.779-1.807 1.907-3.363 3.385-4.67 1.478-1.307 3.282-2.331 5.412-3.073s4.562-1.113 7.295-1.113c3.528 0 6.485.5 8.869 1.5 2.384 1 4.53 2.71 6.437 5.13h4.625v8.324h-9.775c0-1.355-.31-2.508-.93-3.46zm47.348 0c-.62-.952-1.423-1.726-2.408-2.323-.985-.597-2.082-1.032-3.29-1.307-1.208-.274-2.384-.411-3.528-.411-1.272 0-2.44.145-3.505.436-1.065.29-1.979.71-2.742 1.258-.763.548-1.359 1.218-1.788 2.008-.429.79-.644 1.67-.644 2.637 0 1.678.501 3.008 1.502 3.992s2.678 1.895 5.03 2.734l9.489 3.387c4.069 1.387 7.041 3.275 8.917 5.662 1.876 2.387 2.813 5.243 2.813 8.565 0 2.226-.437 4.267-1.311 6.122-.874 1.855-2.114 3.436-3.719 4.742-1.605 1.307-3.536 2.323-5.793 3.049s-4.768 1.089-7.534 1.089c-3.846 0-6.977-.629-9.393-1.887-2.416-1.258-4.275-2.92-5.579-4.984h-4.959v-8.324h9.87c0 1.387.294 2.573.882 3.557.588.984 1.367 1.782 2.336 2.395.97.613 2.066 1.065 3.29 1.355 1.224.29 2.472.436 3.743.436 1.24 0 2.432-.153 3.576-.46 1.144-.306 2.154-.758 3.028-1.355.874-.597 1.566-1.315 2.074-2.153.509-.839.763-1.791.763-2.855 0-1.613-.517-2.984-1.55-4.113-1.033-1.129-2.789-2.145-5.269-3.049l-9.441-3.581c-3.846-1.387-6.699-3.154-8.559-5.299-1.86-2.145-2.789-4.831-2.789-8.057 0-2.129.389-4.097 1.168-5.904.779-1.807 1.907-3.363 3.385-4.67 1.478-1.307 3.282-2.331 5.412-3.073s4.562-1.113 7.295-1.113c3.528 0 6.485.5 8.869 1.5 2.384 1 4.53 2.71 6.437 5.13h4.625v8.324h-9.775c0-1.355-.31-2.508-.93-3.46zm28.156 16.236c0 1.42.103 2.718.31 3.896.207 1.178.501 2.299.882 3.363 1.176 3.226 3.06 5.654 5.65 7.283 2.591 1.629 5.523 2.444 8.797 2.444 2.575 0 5.078-.363 7.51-1.089 2.432-.726 4.983-1.863 7.653-3.412l3.576 6.146c-3.242 2.258-6.501 3.936-9.775 5.033-3.274 1.097-6.675 1.645-10.204 1.645-3.338 0-6.429-.565-9.274-1.694-2.845-1.129-5.293-2.807-7.343-5.033-2.05-2.226-3.656-5.001-4.816-8.324-1.16-3.323-1.74-7.194-1.74-11.614 0-3.581.493-6.96 1.478-10.138s2.456-5.952 4.411-8.324c1.955-2.371 4.379-4.25 7.272-5.638 2.893-1.387 6.262-2.081 10.109-2.081 3.719 0 6.826.573 9.322 1.718 2.495 1.145 4.53 2.662 6.103 4.549 1.574 1.887 2.766 4.041 3.576 6.46.811 2.42 1.375 4.888 1.693 7.404.159 1.226.262 2.468.31 3.726.048 1.258.072 2.484.072 3.678h-35.571zm13.875-19.986c-2.066 0-3.87.298-5.412.895-1.542.597-2.853 1.452-3.934 2.565s-1.947 2.476-2.599 4.089c-.652 1.613-1.136 3.42-1.454 5.42h25.605c-.127-1.871-.421-3.597-.882-5.178s-1.168-2.952-2.122-4.113c-.954-1.161-2.177-2.065-3.672-2.71-1.494-.645-3.338-.968-5.531-.968zm33.377-31.407h16.021v66.975h7.438v8.324h-23.46v-8.324h7.152v-58.652h-7.152v-8.324zm31.756 0h16.021v66.975h7.438v8.324h-23.46v-8.324h7.152v-58.652h-7.152v-8.324zm106.331 1.936h23.46v8.324h-6.866v56.716h6.866v8.324h-23.46v-8.324h7.248v-26.374h-41.817v26.374h7.248v8.324h-23.46v-8.324h6.866v-56.716h-6.866v-8.324h23.46v8.324h-7.248v22.212h41.817v-22.212h-7.248v-8.324zm34.379 48.296c.032-3.968.66-7.581 1.883-10.84 1.224-3.258 2.932-6.057 5.126-8.396 2.193-2.339 4.8-4.138 7.82-5.396 3.02-1.258 6.342-1.887 9.966-1.887 3.656 0 7.001.629 10.037 1.887 3.036 1.258 5.634 3.041 7.796 5.347 2.162 2.307 3.846 5.089 5.054 8.348 1.208 3.258 1.812 6.872 1.812 10.84 0 3.904-.604 7.493-1.812 10.767-1.208 3.275-2.893 6.089-5.054 8.444-2.162 2.355-4.76 4.186-7.796 5.493-3.036 1.307-6.381 1.96-10.037 1.96-3.719 0-7.089-.645-10.109-1.936-3.02-1.29-5.611-3.105-7.772-5.444-2.162-2.339-3.846-5.138-5.054-8.396-1.208-3.258-1.828-6.856-1.86-10.792zm9.393 0c0 2.871.405 5.468 1.216 7.791.811 2.323 1.923 4.299 3.338 5.928 1.415 1.629 3.052 2.887 4.911 3.775 1.86.887 3.838 1.331 5.936 1.331 2.193 0 4.236-.436 6.127-1.307s3.536-2.121 4.935-3.75c1.399-1.629 2.495-3.605 3.29-5.928.795-2.323 1.192-4.936 1.192-7.84 0-3.033-.397-5.726-1.192-8.082-.795-2.355-1.883-4.323-3.266-5.904-1.383-1.581-3.028-2.774-4.935-3.581-1.907-.807-3.958-1.21-6.151-1.21-2.098 0-4.077.403-5.936 1.21-1.86.807-3.497 2-4.911 3.581-1.415 1.581-2.527 3.549-3.338 5.904-.811 2.355-1.216 5.049-1.216 8.082zm-123.817 238.44h291.989v-353.5h-709.489v353.5h292.5l62.5 62.5 62.5-62.5zm170.212-263.507h18.739v8.324h-5.865l11.587 31.987 12.111-31.987h-5.817v-8.324h18.739v8.324h-5.102l-21.981 56.28h6.771v8.324h-19.931v-8.324h6.008l5.245-13.792-16.498-42.489h-4.005v-8.324zm89.777 245.507v-13.5h-649.489v13.5l275.523.267 51.492 49.794 51.511-49.748 270.963-.313z" fill="url(#a)" sketch:type="MSShapeGroup"/><path d="M320.875 336.175l69.511-.263-34.887 34.887-34.624-34.624z" fill="#F0F0F0" sketch:type="MSShapeGroup"/></g></svg>